<?xml version="1.0" encoding="UTF-8"?><svg xmlns="http://www.w3.org/2000/svg" xmlns:xlink="http://www.w3.org/1999/xlink" fill-opacity="1" color-rendering="auto" color-interpolation="auto" text-rendering="auto" stroke="black" stroke-linecap="square" width="1509" stroke-miterlimit="10" shape-rendering="auto" stroke-opacity="1" fill="black" stroke-dasharray="none" font-weight="normal" stroke-width="1" height="1106" font-family="'Dialog'" font-style="normal" stroke-linejoin="miter" font-size="12px" stroke-dashoffset="0" image-rendering="auto">
  <!--Generated by ySVG 2.6-->
  <defs id="genericDefs"/>
  <g>
    <defs id="defs1">
      <clipPath clipPathUnits="userSpaceOnUse" id="clipPath1">
        <path d="M0 0 L1509 0 L1509 1106 L0 1106 L0 0 Z"/>
      </clipPath>
      <clipPath clipPathUnits="userSpaceOnUse" id="clipPath2">
        <path d="M-881 -533 L628 -533 L628 573 L-881 573 L-881 -533 Z"/>
      </clipPath>
      <clipPath clipPathUnits="userSpaceOnUse" id="clipPath3">
        <path d="M311.1931 -136.3263 L311.1931 -115.7482 L467.1931 -115.7482 L467.1931 -136.3263 Z"/>
      </clipPath>
      <clipPath clipPathUnits="userSpaceOnUse" id="clipPath4">
        <path d="M221.4342 347.3923 L221.4342 367.9704 L377.4342 367.9704 L377.4342 347.3923 Z"/>
      </clipPath>
      <clipPath clipPathUnits="userSpaceOnUse" id="clipPath5">
        <path d="M311.1931 184.6423 L311.1931 205.2204 L467.1931 205.2204 L467.1931 184.6423 Z"/>
      </clipPath>
      <clipPath clipPathUnits="userSpaceOnUse" id="clipPath6">
        <path d="M42.1738 -348.657 L42.1738 -325.7567 L198.1738 -325.7567 L198.1738 -348.657 Z"/>
      </clipPath>
      <clipPath clipPathUnits="userSpaceOnUse" id="clipPath7">
        <path d="M415.2363 24.158 L415.2363 44.7361 L552.903 44.7361 L552.903 24.158 Z"/>
      </clipPath>
      <clipPath clipPathUnits="userSpaceOnUse" id="clipPath8">
        <path d="M230.6008 -297.9717 L230.6008 -275.0714 L368.2676 -275.0714 L368.2676 -297.9717 Z"/>
      </clipPath>
      <clipPath clipPathUnits="userSpaceOnUse" id="clipPath9">
        <path d="M-789.5101 -348.657 L-789.5101 -325.7567 L-651.8434 -325.7567 L-651.8434 -348.657 Z"/>
      </clipPath>
      <clipPath clipPathUnits="userSpaceOnUse" id="clipPath10">
        <path d="M-800.2392 97.7151 L-800.2392 118.2933 L-641.1142 118.2933 L-641.1142 97.7151 Z"/>
      </clipPath>
      <clipPath clipPathUnits="userSpaceOnUse" id="clipPath11">
        <path d="M-800.2392 -120.6651 L-800.2392 -97.7647 L-641.1142 -97.7647 L-641.1142 -120.6651 Z"/>
      </clipPath>
      <clipPath clipPathUnits="userSpaceOnUse" id="clipPath12">
        <path d="M-800.2392 314.9343 L-800.2392 335.5125 L-641.1142 335.5125 L-641.1142 314.9343 Z"/>
      </clipPath>
      <clipPath clipPathUnits="userSpaceOnUse" id="clipPath13">
        <path d="M60.7051 406.968 L60.7051 427.5461 L187.6426 427.5461 L187.6426 406.968 Z"/>
      </clipPath>
      <clipPath clipPathUnits="userSpaceOnUse" id="clipPath14">
        <path d="M-491.6002 -349.8182 L-491.6002 -324.5955 L-317.6835 -324.5955 L-317.6835 -349.8182 Z"/>
      </clipPath>
      <clipPath clipPathUnits="userSpaceOnUse" id="clipPath15">
        <path d="M-171.2746 24.158 L-171.2746 44.7361 L-91.3163 44.7361 L-91.3163 24.158 Z"/>
      </clipPath>
    </defs>
    <g fill="white" text-rendering="geometricPrecision" shape-rendering="geometricPrecision" transform="translate(881,533)" stroke="white">
      <rect x="-881" width="1509" height="1106" y="-533" clip-path="url(#clipPath2)" stroke="none"/>
    </g>
    <g fill="rgb(253,249,245)" text-rendering="geometricPrecision" shape-rendering="geometricPrecision" transform="matrix(1,0,0,1,881,533)" stroke="rgb(253,249,245)">
      <path d="M-865.6592 -517.5003 L-865.6592 -487.5003 L612.2447 -487.5003 L612.2447 -517.5003 Z" stroke="none" clip-path="url(#clipPath2)"/>
      <rect x="-865.6592" width="1477.9039" height="1045.3771" y="-487.5003" clip-path="url(#clipPath2)" stroke="none"/>
      <rect x="-865.6592" y="-487.5003" clip-path="url(#clipPath2)" fill="rgb(95,122,173)" width="294.4732" height="24" stroke="none"/>
      <rect x="-865.6592" width="294.4732" height="1021.3771" y="-463.5003" clip-path="url(#clipPath2)" stroke="none"/>
      <rect x="-571.186" y="-487.5003" clip-path="url(#clipPath2)" fill="rgb(95,122,173)" width="322.7969" height="24" stroke="none"/>
      <rect x="-571.186" width="322.7969" height="1021.3771" y="-463.5003" clip-path="url(#clipPath2)" stroke="none"/>
      <rect x="-248.3891" y="-487.5003" clip-path="url(#clipPath2)" fill="rgb(95,122,173)" width="235.9516" height="24" stroke="none"/>
      <rect x="-248.3891" width="235.9516" height="1021.3771" y="-463.5003" clip-path="url(#clipPath2)" stroke="none"/>
      <rect x="-12.4375" y="-487.5003" clip-path="url(#clipPath2)" fill="rgb(95,122,173)" width="624.6822" height="24" stroke="none"/>
      <rect x="-12.4375" width="624.6822" height="1021.3771" y="-463.5003" clip-path="url(#clipPath2)" stroke="none"/>
      <line clip-path="url(#clipPath2)" fill="rgb(95,122,173)" x1="-865.6592" x2="-865.6592" y1="-463.5003" y2="557.8768" stroke="none"/>
    </g>
    <g stroke-linecap="butt" transform="matrix(1,0,0,1,881,533)" fill="rgb(95,122,173)" text-rendering="geometricPrecision" shape-rendering="geometricPrecision" stroke="rgb(95,122,173)" stroke-width="2" stroke-miterlimit="1.45">
      <rect fill="none" x="-865.6592" width="1477.9039" height="1075.3771" y="-517.5003" clip-path="url(#clipPath2)"/>
      <rect fill="none" x="-865.6592" width="294.4732" height="1045.3771" y="-487.5003" clip-path="url(#clipPath2)"/>
      <rect fill="none" x="-571.186" width="322.7969" height="1045.3771" y="-487.5003" clip-path="url(#clipPath2)"/>
      <rect fill="none" x="-248.3891" width="235.9516" height="1045.3771" y="-487.5003" clip-path="url(#clipPath2)"/>
      <rect fill="none" x="-12.4375" width="624.6822" height="1045.3771" y="-487.5003" clip-path="url(#clipPath2)"/>
      <rect fill="none" x="-865.6592" width="1477.9039" height="1021.3771" y="-463.5003" clip-path="url(#clipPath2)"/>
    </g>
    <g stroke-linecap="butt" font-size="18px" transform="matrix(1,0,0,1,881,533)" fill="rgb(88,110,117)" text-rendering="geometricPrecision" font-family="'Trebuchet MS'" shape-rendering="geometricPrecision" stroke="rgb(88,110,117)" font-weight="bold" stroke-miterlimit="1.45">
      <text x="-247.9963" xml:space="preserve" y="-494.5989" clip-path="url(#clipPath2)" stroke="none">DITA LT Framework Formate</text>
      <text x="-749.8962" y="-465.5989" clip-path="url(#clipPath2)" fill="rgb(253,249,245)" stroke="none" font-weight="normal" xml:space="preserve">Eingabe</text>
      <text x="-458.4262" y="-465.5989" clip-path="url(#clipPath2)" fill="rgb(253,249,245)" stroke="none" font-weight="normal" xml:space="preserve">Bearbeitung</text>
      <text x="-194.8942" y="-465.5989" clip-path="url(#clipPath2)" fill="rgb(253,249,245)" stroke="none" font-weight="normal" xml:space="preserve">Zwischenformat</text>
    </g>
    <g stroke-linecap="butt" font-size="18px" transform="matrix(1,0,0,1,881,533)" fill="rgb(253,249,245)" text-rendering="geometricPrecision" font-family="sans-serif" shape-rendering="geometricPrecision" stroke="rgb(253,249,245)" stroke-miterlimit="1.45">
      <text x="264.3738" xml:space="preserve" y="-464.4036" clip-path="url(#clipPath2)" stroke="none">Ausgabe</text>
    </g>
    <g fill="rgb(245,245,245)" text-rendering="geometricPrecision" shape-rendering="geometricPrecision" transform="matrix(1,0,0,1,881,533)" stroke="rgb(245,245,245)">
      <rect x="309.1931" y="-192.4123" clip-path="url(#clipPath2)" width="160" rx="4" ry="4" height="132.75" stroke="none"/>
    </g>
    <g stroke-linecap="butt" transform="matrix(1,0,0,1,881,533)" fill="rgb(95,122,173)" text-rendering="geometricPrecision" shape-rendering="geometricPrecision" stroke="rgb(95,122,173)" stroke-width="2" stroke-miterlimit="1.45">
      <rect x="309.1931" y="-192.4123" clip-path="url(#clipPath2)" fill="none" width="160" rx="4" ry="4" height="132.75"/>
    </g>
    <g fill="rgb(88,110,117)" text-rendering="geometricPrecision" shape-rendering="geometricPrecision" transform="matrix(1,0,0,1,881,533)" stroke="rgb(88,110,117)">
      <path d="M368.6502 -121.3029 L368.6502 -132.756 L370.2127 -132.756 L370.2127 -122.7091 L375.3846 -122.7091 L375.3846 -121.3029 L368.6502 -121.3029 ZM381.3611 -122.2716 Q380.4705 -121.1466 378.6424 -121.1466 Q377.658 -121.1466 376.9236 -121.8654 Q376.2049 -122.5841 376.2049 -123.6466 Q376.2049 -124.9123 377.3142 -125.7873 Q378.4392 -126.6779 380.158 -126.6779 Q380.6267 -126.6779 381.2205 -126.4748 Q381.2205 -128.506 379.408 -128.506 Q378.0174 -128.506 377.2674 -127.756 L376.6424 -128.9904 Q377.0642 -129.3341 377.8142 -129.5841 Q378.5642 -129.8341 379.2361 -129.8341 Q381.0642 -129.8341 381.8767 -129.006 Q382.7049 -128.1779 382.7049 -126.3654 L382.7049 -123.3654 Q382.7049 -122.2716 383.3611 -121.8966 L383.3611 -121.1466 Q382.4549 -121.1466 382.0017 -121.4123 Q381.5642 -121.6779 381.3611 -122.2716 ZM381.2205 -125.4123 Q380.5174 -125.5685 380.2361 -125.5685 Q379.1111 -125.5685 378.3924 -124.9904 Q377.6892 -124.4123 377.6892 -123.631 Q377.6892 -122.3185 379.2361 -122.3185 Q380.3611 -122.3185 381.2205 -123.3966 L381.2205 -125.4123 ZM389.3299 -131.3498 L389.3299 -121.3029 L387.7674 -121.3029 L387.7674 -131.3498 L384.1267 -131.3498 L384.1267 -132.756 L393.1424 -132.756 L393.1424 -131.3498 L389.3299 -131.3498 ZM401.3846 -125.3498 L395.3533 -125.3498 Q395.3533 -123.881 396.1502 -123.0841 Q396.8689 -122.3966 397.9783 -122.3966 Q399.2596 -122.3966 400.1033 -123.1466 L400.7283 -122.0685 Q400.3846 -121.7248 399.6814 -121.4748 Q398.7908 -121.1466 397.6971 -121.1466 Q396.1189 -121.1466 395.0096 -122.2248 Q393.7908 -123.3966 393.7908 -125.3966 Q393.7908 -127.4591 395.0408 -128.7091 Q396.1658 -129.8341 397.7127 -129.8341 Q399.4939 -129.8341 400.5096 -128.8185 Q401.4939 -127.8498 401.4939 -126.256 Q401.4939 -125.756 401.3846 -125.3498 ZM397.7752 -128.5841 Q396.7908 -128.5841 396.1189 -127.9435 Q395.4783 -127.3341 395.3846 -126.4279 L400.0252 -126.4279 Q400.0252 -127.3185 399.4627 -127.9279 Q398.8377 -128.5841 397.7752 -128.5841 ZM409.158 -121.3029 L406.3142 -125.8966 L403.6892 -121.3029 L402.1111 -121.3029 L405.4861 -127.2404 L402.3767 -132.756 L403.9236 -132.756 L406.3611 -128.4279 L409.0642 -132.756 L410.6267 -132.756 L407.0799 -127.2091 L410.8142 -121.3029 L409.158 -121.3029 Z" stroke="none" clip-path="url(#clipPath3)"/>
      <rect x="219.4342" y="291.3063" clip-path="url(#clipPath2)" fill="rgb(245,245,245)" width="160" rx="4" ry="4" height="132.75" stroke="none"/>
    </g>
    <g stroke-linecap="butt" transform="matrix(1,0,0,1,881,533)" fill="rgb(95,122,173)" text-rendering="geometricPrecision" shape-rendering="geometricPrecision" stroke="rgb(95,122,173)" stroke-width="2" stroke-miterlimit="1.45">
      <rect x="219.4342" y="291.3063" clip-path="url(#clipPath2)" fill="none" width="160" rx="4" ry="4" height="132.75"/>
    </g>
    <g fill="rgb(88,110,117)" text-rendering="geometricPrecision" shape-rendering="geometricPrecision" transform="matrix(1,0,0,1,881,533)" stroke="rgb(88,110,117)">
      <path d="M287.5631 362.4157 L287.5631 356.8845 L282.5631 356.8845 L282.5631 362.4157 L281.0006 362.4157 L281.0006 350.9626 L282.5631 350.9626 L282.5631 355.5563 L287.5631 355.5563 L287.5631 350.9626 L289.1256 350.9626 L289.1256 362.4157 L287.5631 362.4157 ZM295.6412 352.3688 L295.6412 362.4157 L294.0787 362.4157 L294.0787 352.3688 L290.4381 352.3688 L290.4381 350.9626 L299.4537 350.9626 L299.4537 352.3688 L295.6412 352.3688 ZM309.3834 362.4157 L308.024 355.0563 L305.524 362.572 L305.1334 362.572 L302.5553 355.0563 L301.2272 362.4157 L299.7428 362.4157 L301.8834 350.9626 L302.6022 350.9626 L305.3209 359.322 L307.8365 350.9626 L308.5397 350.9626 L310.8678 362.4157 L309.3834 362.4157 ZM312.11 362.4157 L312.11 350.9626 L313.6725 350.9626 L313.6725 361.0095 L318.8444 361.0095 L318.8444 362.4157 L312.11 362.4157 Z" stroke="none" clip-path="url(#clipPath4)"/>
      <rect x="309.1931" y="128.5563" clip-path="url(#clipPath2)" fill="rgb(245,245,245)" width="160" rx="4" ry="4" height="132.75" stroke="none"/>
    </g>
    <g stroke-linecap="butt" transform="matrix(1,0,0,1,881,533)" fill="rgb(95,122,173)" text-rendering="geometricPrecision" shape-rendering="geometricPrecision" stroke="rgb(95,122,173)" stroke-width="2" stroke-miterlimit="1.45">
      <rect x="309.1931" y="128.5563" clip-path="url(#clipPath2)" fill="none" width="160" rx="4" ry="4" height="132.75"/>
    </g>
    <g fill="rgb(88,110,117)" text-rendering="geometricPrecision" shape-rendering="geometricPrecision" transform="matrix(1,0,0,1,881,533)" stroke="rgb(88,110,117)">
      <path d="M378.3611 195.2594 L378.3611 199.6657 L376.7986 199.6657 L376.7986 188.2126 Q378.5799 188.1344 378.9392 188.1344 Q383.9236 188.1344 383.9236 191.4782 Q383.9236 195.3376 379.5174 195.3376 Q379.2517 195.3376 378.3611 195.2594 ZM378.3611 189.6188 L378.3611 193.8532 Q379.3611 193.9313 379.408 193.9313 Q382.3142 193.9313 382.3142 191.6344 Q382.3142 189.5407 379.2205 189.5407 Q378.908 189.5407 378.3611 189.6188 ZM388.033 199.6657 L385.7205 199.6657 L385.7205 188.2126 Q387.9236 188.1344 388.5486 188.1344 Q390.9392 188.1344 392.3299 189.6032 Q393.7361 191.0563 393.7361 193.4782 Q393.7361 199.6657 388.033 199.6657 ZM387.283 189.6188 L387.283 198.1813 Q387.8142 198.2594 388.5799 198.2594 Q390.2205 198.2594 391.158 197.0251 Q392.0955 195.7907 392.0955 193.6032 Q392.0955 189.5407 388.4549 189.5407 Q388.2361 189.5407 387.283 189.6188 ZM397.0955 189.6188 L397.0955 192.8063 L401.1267 192.8063 L401.1267 194.1344 L397.0955 194.1344 L397.0955 199.6657 L395.533 199.6657 L395.533 188.2126 L402.6111 188.2126 L402.6111 189.6188 L397.0955 189.6188 Z" stroke="none" clip-path="url(#clipPath5)"/>
      <rect x="44.1738" y="-403.5818" clip-path="url(#clipPath2)" fill="rgb(245,245,245)" width="160" rx="4" ry="4" height="132.75" stroke="none"/>
    </g>
    <g stroke-linecap="butt" transform="matrix(1,0,0,1,881,533)" fill="rgb(95,122,173)" text-rendering="geometricPrecision" shape-rendering="geometricPrecision" stroke="rgb(95,122,173)" stroke-width="2" stroke-miterlimit="1.45">
      <rect x="44.1738" y="-403.5818" clip-path="url(#clipPath2)" fill="none" width="160" rx="4" ry="4" height="132.75"/>
    </g>
    <g fill="rgb(236,151,69)" text-rendering="geometricPrecision" shape-rendering="geometricPrecision" transform="matrix(1,0,0,1,881,533)" stroke="rgb(236,151,69)">
      <path d="M86.2651 -331.7557 L83.6714 -331.7557 L83.6714 -344.6307 Q86.1557 -344.7244 86.8432 -344.7244 Q89.5464 -344.7244 91.1245 -343.0838 Q92.7026 -341.4432 92.7026 -338.7244 Q92.7026 -331.7557 86.2651 -331.7557 ZM85.437 -343.0526 L85.437 -333.4276 Q86.0307 -333.3338 86.8901 -333.3338 Q88.7339 -333.3338 89.7807 -334.7088 Q90.8432 -336.0994 90.8432 -338.5682 Q90.8432 -343.1307 86.7495 -343.1307 Q86.4995 -343.1307 85.437 -343.0526 ZM95.0229 -331.7557 L95.0229 -344.6307 L96.7886 -344.6307 L96.7886 -331.7557 L95.0229 -331.7557 ZM104.4233 -343.0526 L104.4233 -331.7557 L102.6577 -331.7557 L102.6577 -343.0526 L98.5639 -343.0526 L98.5639 -344.6307 L108.7046 -344.6307 L108.7046 -343.0526 L104.4233 -343.0526 ZM117.4829 -331.7557 L116.6079 -334.4744 L111.811 -334.4744 L110.8579 -331.7557 L108.8891 -331.7557 L114.1235 -344.8026 L114.5923 -344.8026 L119.436 -331.7557 L117.4829 -331.7557 ZM114.2798 -341.4276 L112.2798 -335.7713 L116.1079 -335.7713 L114.2798 -341.4276 ZM120.8657 -336.2088 L120.8657 -337.7401 L124.6313 -337.7401 L124.6313 -336.2088 L120.8657 -336.2088 ZM134.1313 -331.7557 L130.9282 -336.9276 L127.9751 -331.7557 L126.1938 -331.7557 L129.9907 -338.4432 L126.5063 -344.6463 L128.2407 -344.6307 L130.9907 -339.7557 L134.0219 -344.6307 L135.7876 -344.6307 L131.7876 -338.3963 L135.9907 -331.7557 L134.1313 -331.7557 ZM147.1196 -331.7557 L145.5883 -340.0213 L142.7758 -331.5838 L142.3383 -331.5838 L139.4477 -340.0213 L137.9477 -331.7557 L136.2758 -331.7557 L138.6821 -344.6307 L139.4946 -344.6307 L142.5571 -335.2401 L145.3852 -344.6307 L146.1821 -344.6307 L148.7915 -331.7557 L147.1196 -331.7557 ZM150.187 -331.7557 L150.187 -344.6307 L151.9526 -344.6307 L151.9526 -333.3338 L157.7651 -333.3338 L157.7651 -331.7557 L150.187 -331.7557 Z" stroke="none" clip-path="url(#clipPath6)"/>
      <rect x="413.2363" y="-40.0075" clip-path="url(#clipPath2)" fill="rgb(245,245,245)" width="141.6667" rx="4" ry="4" height="148.9091" stroke="none"/>
    </g>
    <g stroke-linecap="butt" transform="matrix(1,0,0,1,881,533)" fill="rgb(95,122,173)" text-rendering="geometricPrecision" shape-rendering="geometricPrecision" stroke="rgb(95,122,173)" stroke-width="2" stroke-miterlimit="1.45">
      <rect x="413.2363" y="-40.0075" clip-path="url(#clipPath2)" fill="none" width="141.6667" rx="4" ry="4" height="148.9091"/>
    </g>
    <g fill="rgb(88,110,117)" text-rendering="geometricPrecision" shape-rendering="geometricPrecision" transform="matrix(1,0,0,1,881,533)" stroke="rgb(88,110,117)">
      <path d="M457.7689 39.1814 L456.4095 31.822 L453.9095 39.3377 L453.5189 39.3377 L450.9407 31.822 L449.6126 39.1814 L448.1282 39.1814 L450.2689 27.7283 L450.9876 27.7283 L453.7064 36.0877 L456.222 27.7283 L456.9251 27.7283 L459.2532 39.1814 L457.7689 39.1814 ZM465.1048 38.2127 Q464.2142 39.3377 462.386 39.3377 Q461.4017 39.3377 460.6673 38.6189 Q459.9485 37.9002 459.9485 36.8377 Q459.9485 35.572 461.0579 34.697 Q462.1829 33.8064 463.9017 33.8064 Q464.3704 33.8064 464.9642 34.0095 Q464.9642 31.9783 463.1517 31.9783 Q461.761 31.9783 461.011 32.7283 L460.386 31.4939 Q460.8079 31.1502 461.5579 30.9002 Q462.3079 30.6502 462.9798 30.6502 Q464.8079 30.6502 465.6204 31.4783 Q466.4485 32.3064 466.4485 34.1189 L466.4485 37.1189 Q466.4485 38.2127 467.1048 38.5877 L467.1048 39.3377 Q466.1985 39.3377 465.7454 39.072 Q465.3079 38.8064 465.1048 38.2127 ZM464.9642 35.072 Q464.261 34.9158 463.9798 34.9158 Q462.8548 34.9158 462.136 35.4939 Q461.4329 36.072 461.4329 36.8533 Q461.4329 38.1658 462.9798 38.1658 Q464.1048 38.1658 464.9642 37.0877 L464.9642 35.072 ZM473.3392 32.2439 Q472.8548 31.9002 472.3548 31.9002 Q471.5735 31.9002 470.9798 32.6345 Q470.386 33.3533 470.386 34.3845 L470.386 39.1814 L468.9017 39.1814 L468.9017 30.8064 L470.386 30.8064 L470.386 32.1502 Q471.1985 30.6502 472.8079 30.6502 Q473.1985 30.6502 473.9485 30.7908 L473.3392 32.2439 ZM480.4173 39.1814 L477.7923 34.9939 L476.4954 36.322 L476.4954 39.1814 L475.011 39.1814 L475.011 27.3845 L476.4954 27.3845 L476.4954 34.697 L479.6985 30.8064 L481.4329 30.8064 L478.7454 33.9939 L482.0267 39.1814 L480.4173 39.1814 ZM488.3782 39.1658 L488.3782 38.5564 Q487.6126 39.3377 486.1282 39.3377 Q484.5657 39.3377 483.5814 38.2127 Q482.6126 37.072 482.6126 35.197 Q482.6126 33.322 483.7376 31.9939 Q484.8626 30.6502 486.4095 30.6502 Q487.7064 30.6502 488.3782 31.2595 L488.3782 27.3845 L489.8626 27.3845 L489.8626 39.1658 L488.3782 39.1658 ZM488.3782 32.7439 Q487.8157 31.9002 486.847 31.9002 Q485.6439 31.9002 484.9095 32.7908 Q484.1751 33.6814 484.1751 35.0564 Q484.1751 38.0877 486.9251 38.0877 Q487.2689 38.0877 487.7532 37.8689 Q488.2532 37.6345 488.3782 37.3845 L488.3782 32.7439 ZM491.4485 34.9783 Q491.4485 33.0408 492.4798 31.8533 Q493.5267 30.6502 495.2298 30.6502 Q497.0267 30.6502 498.011 31.8064 Q499.011 32.947 499.011 34.9783 Q499.011 36.9939 497.9954 38.1658 Q496.9798 39.3377 495.2298 39.3377 Q493.4485 39.3377 492.4485 38.1658 Q491.4485 36.9783 491.4485 34.9783 ZM493.011 34.9783 Q493.011 38.1189 495.2298 38.1189 Q496.2767 38.1189 496.8548 37.2752 Q497.4485 36.4314 497.4485 34.9783 Q497.4485 31.8689 495.2298 31.8689 Q494.2142 31.8689 493.6048 32.697 Q493.011 33.5252 493.011 34.9783 ZM508.3157 39.3377 L507.9251 39.3377 L505.472 33.6345 L503.0189 39.3377 L502.6282 39.3377 L499.6439 30.7908 L501.222 30.7908 L503.0189 36.2752 L505.2376 30.7908 L505.6282 30.7908 L507.9251 36.2752 L509.847 30.7908 L511.3157 30.7908 L508.3157 39.3377 ZM517.6282 39.1814 L517.6282 34.3064 Q517.6282 32.9783 517.222 32.447 Q516.8314 31.9002 515.8782 31.9002 Q515.3782 31.9002 514.8157 32.2127 Q514.2689 32.5095 513.972 32.9627 L513.972 39.1814 L512.4876 39.1814 L512.4876 30.8064 L513.5032 30.8064 L513.972 31.8845 Q514.7064 30.6502 516.3626 30.6502 Q519.1126 30.6502 519.1126 33.9939 L519.1126 39.1814 L517.6282 39.1814 Z" stroke="none" clip-path="url(#clipPath7)"/>
      <rect x="228.6009" y="-360.9761" clip-path="url(#clipPath2)" fill="rgb(245,245,245)" width="141.6667" rx="4" ry="4" height="148.9091" stroke="none"/>
    </g>
    <g stroke-linecap="butt" transform="matrix(1,0,0,1,881,533)" fill="rgb(95,122,173)" text-rendering="geometricPrecision" shape-rendering="geometricPrecision" stroke="rgb(95,122,173)" stroke-width="2" stroke-miterlimit="1.45">
      <rect x="228.6009" y="-360.9761" clip-path="url(#clipPath2)" fill="none" width="141.6667" rx="4" ry="4" height="148.9091"/>
    </g>
    <g fill="rgb(88,110,117)" text-rendering="geometricPrecision" shape-rendering="geometricPrecision" transform="matrix(1,0,0,1,881,533)" stroke="rgb(88,110,117)">
      <path d="M270.3859 -280.8985 L269.8234 -280.8985 L266.7609 -289.7735 L263.9015 -280.8985 L263.339 -280.8985 L259.2765 -293.9454 L261.1046 -293.9454 L263.6984 -284.961 L266.5265 -293.9454 L267.1359 -293.9454 L269.9328 -284.9766 L272.5578 -293.9454 L274.3859 -293.9454 L270.3859 -280.8985 ZM275.0822 -285.8047 Q275.0822 -287.9766 276.2541 -289.3204 Q277.4259 -290.6641 279.3322 -290.6641 Q281.3634 -290.6641 282.4728 -289.3672 Q283.5978 -288.086 283.5978 -285.8047 Q283.5978 -283.5235 282.4416 -282.211 Q281.3009 -280.8985 279.3322 -280.8985 Q277.3322 -280.8985 276.2072 -282.2266 Q275.0822 -283.5547 275.0822 -285.8047 ZM276.8322 -285.8047 Q276.8322 -282.2579 279.3322 -282.2579 Q280.5041 -282.2579 281.1603 -283.1954 Q281.8322 -284.1485 281.8322 -285.8047 Q281.8322 -289.3047 279.3322 -289.3047 Q278.1916 -289.3047 277.5041 -288.3672 Q276.8322 -287.4297 276.8322 -285.8047 ZM290.4601 -288.8829 Q289.9132 -289.2579 289.3664 -289.2579 Q288.4757 -289.2579 287.8039 -288.4297 Q287.1476 -287.6172 287.1476 -286.461 L287.1476 -281.0704 L285.4757 -281.0704 L285.4757 -290.4766 L287.1476 -290.4766 L287.1476 -288.9766 Q288.0695 -290.6641 289.8664 -290.6641 Q290.3195 -290.6641 291.1632 -290.5079 L290.4601 -288.8829 ZM298.3156 -281.086 L298.3156 -281.7735 Q297.4406 -280.8985 295.7843 -280.8985 Q294.0187 -280.8985 292.9093 -282.1641 Q291.8156 -283.4297 291.8156 -285.5391 Q291.8156 -287.6641 293.0812 -289.1641 Q294.3468 -290.6641 296.0968 -290.6641 Q297.5656 -290.6641 298.3156 -289.9766 L298.3156 -294.336 L299.9875 -294.336 L299.9875 -281.086 L298.3156 -281.086 ZM298.3156 -288.3047 Q297.675 -289.2579 296.5812 -289.2579 Q295.2375 -289.2579 294.4093 -288.2422 Q293.5812 -287.2422 293.5812 -285.6954 Q293.5812 -282.3047 296.675 -282.3047 Q297.0656 -282.3047 297.6125 -282.5547 Q298.175 -282.8047 298.3156 -283.086 L298.3156 -288.3047 ZM302.5783 -285.5235 L302.5783 -287.0547 L306.3439 -287.0547 L306.3439 -285.5235 L302.5783 -285.5235 ZM315.8439 -281.0704 L312.6408 -286.2422 L309.6877 -281.0704 L307.9064 -281.0704 L311.7033 -287.7579 L308.2189 -293.961 L309.9533 -293.9454 L312.7033 -289.0704 L315.7345 -293.9454 L317.5002 -293.9454 L313.5002 -287.711 L317.7033 -281.0704 L315.8439 -281.0704 ZM328.8322 -281.0704 L327.3009 -289.336 L324.4884 -280.8985 L324.0509 -280.8985 L321.1603 -289.336 L319.6603 -281.0704 L317.9884 -281.0704 L320.3947 -293.9454 L321.2072 -293.9454 L324.2697 -284.5547 L327.0978 -293.9454 L327.8947 -293.9454 L330.5041 -281.0704 L328.8322 -281.0704 ZM331.8996 -281.0704 L331.8996 -293.9454 L333.6652 -293.9454 L333.6652 -282.6485 L339.4777 -282.6485 L339.4777 -281.0704 L331.8996 -281.0704 Z" stroke="none" clip-path="url(#clipPath8)"/>
      <rect x="-791.5101" y="-411.6614" clip-path="url(#clipPath2)" fill="rgb(245,245,245)" width="141.6667" rx="4" ry="4" height="148.9091" stroke="none"/>
    </g>
    <g stroke-linecap="butt" transform="matrix(1,0,0,1,881,533)" fill="rgb(95,122,173)" text-rendering="geometricPrecision" shape-rendering="geometricPrecision" stroke="rgb(95,122,173)" stroke-width="2" stroke-miterlimit="1.45">
      <rect x="-791.5101" y="-411.6614" clip-path="url(#clipPath2)" fill="none" width="141.6667" rx="4" ry="4" height="148.9091"/>
    </g>
    <g fill="rgb(236,151,69)" text-rendering="geometricPrecision" shape-rendering="geometricPrecision" transform="matrix(1,0,0,1,881,533)" stroke="rgb(236,151,69)">
      <path d="M-754.5854 -331.7557 L-757.1792 -331.7557 L-757.1792 -344.6307 Q-754.6948 -344.7244 -754.0073 -344.7244 Q-751.3042 -344.7244 -749.7261 -343.0838 Q-748.1479 -341.4432 -748.1479 -338.7244 Q-748.1479 -331.7557 -754.5854 -331.7557 ZM-755.4136 -343.0526 L-755.4136 -333.4276 Q-754.8198 -333.3338 -753.9604 -333.3338 Q-752.1167 -333.3338 -751.0698 -334.7088 Q-750.0073 -336.0994 -750.0073 -338.5682 Q-750.0073 -343.1307 -754.1011 -343.1307 Q-754.3511 -343.1307 -755.4136 -343.0526 ZM-745.8276 -331.7557 L-745.8276 -344.6307 L-744.062 -344.6307 L-744.062 -331.7557 L-745.8276 -331.7557 ZM-736.4272 -343.0526 L-736.4272 -331.7557 L-738.1929 -331.7557 L-738.1929 -343.0526 L-742.2866 -343.0526 L-742.2866 -344.6307 L-732.146 -344.6307 L-732.146 -343.0526 L-736.4272 -343.0526 ZM-723.3677 -331.7557 L-724.2427 -334.4744 L-729.0396 -334.4744 L-729.9927 -331.7557 L-731.9614 -331.7557 L-726.7271 -344.8026 L-726.2583 -344.8026 L-721.4146 -331.7557 L-723.3677 -331.7557 ZM-726.5708 -341.4276 L-728.5708 -335.7713 L-724.7427 -335.7713 L-726.5708 -341.4276 ZM-719.9849 -336.2088 L-719.9849 -337.7401 L-716.2192 -337.7401 L-716.2192 -336.2088 L-719.9849 -336.2088 ZM-706.7192 -331.7557 L-709.9224 -336.9276 L-712.8755 -331.7557 L-714.6567 -331.7557 L-710.8599 -338.4432 L-714.3442 -344.6463 L-712.6099 -344.6307 L-709.8599 -339.7557 L-706.8286 -344.6307 L-705.063 -344.6307 L-709.063 -338.3963 L-704.8599 -331.7557 L-706.7192 -331.7557 ZM-693.731 -331.7557 L-695.2622 -340.0213 L-698.0747 -331.5838 L-698.5122 -331.5838 L-701.4028 -340.0213 L-702.9028 -331.7557 L-704.5747 -331.7557 L-702.1685 -344.6307 L-701.356 -344.6307 L-698.2935 -335.2401 L-695.4653 -344.6307 L-694.6685 -344.6307 L-692.0591 -331.7557 L-693.731 -331.7557 ZM-690.6636 -331.7557 L-690.6636 -344.6307 L-688.8979 -344.6307 L-688.8979 -333.3338 L-683.0854 -333.3338 L-683.0854 -331.7557 L-690.6636 -331.7557 Z" stroke="none" clip-path="url(#clipPath9)"/>
      <rect x="-802.2392" y="44.3224" clip-path="url(#clipPath2)" fill="rgb(245,245,245)" width="163.125" rx="4" ry="4" height="127.3636" stroke="none"/>
    </g>
    <g stroke-linecap="butt" transform="matrix(1,0,0,1,881,533)" fill="rgb(95,122,173)" text-rendering="geometricPrecision" shape-rendering="geometricPrecision" stroke="rgb(95,122,173)" stroke-width="2" stroke-miterlimit="1.45">
      <rect x="-802.2392" y="44.3224" clip-path="url(#clipPath2)" fill="none" width="163.125" rx="4" ry="4" height="127.3636"/>
    </g>
    <g fill="rgb(88,110,117)" text-rendering="geometricPrecision" shape-rendering="geometricPrecision" transform="matrix(1,0,0,1,881,533)" stroke="rgb(88,110,117)">
      <path d="M-741.2197 112.7386 L-741.2197 101.2855 L-739.6572 101.2855 L-739.6572 111.3323 L-734.4853 111.3323 L-734.4853 112.7386 L-741.2197 112.7386 ZM-728.5087 111.7698 Q-729.3994 112.8948 -731.2275 112.8948 Q-732.2119 112.8948 -732.9462 112.1761 Q-733.665 111.4573 -733.665 110.3948 Q-733.665 109.1292 -732.5556 108.2542 Q-731.4306 107.3636 -729.7119 107.3636 Q-729.2431 107.3636 -728.6494 107.5667 Q-728.6494 105.5355 -730.4619 105.5355 Q-731.8525 105.5355 -732.6025 106.2855 L-733.2275 105.0511 Q-732.8056 104.7073 -732.0556 104.4573 Q-731.3056 104.2073 -730.6337 104.2073 Q-728.8056 104.2073 -727.9931 105.0355 Q-727.165 105.8636 -727.165 107.6761 L-727.165 110.6761 Q-727.165 111.7698 -726.5087 112.1448 L-726.5087 112.8948 Q-727.415 112.8948 -727.8681 112.6292 Q-728.3056 112.3636 -728.5087 111.7698 ZM-728.6494 108.6292 Q-729.3525 108.473 -729.6337 108.473 Q-730.7587 108.473 -731.4775 109.0511 Q-732.1806 109.6292 -732.1806 110.4105 Q-732.1806 111.723 -730.6337 111.723 Q-729.5087 111.723 -728.6494 110.6448 L-728.6494 108.6292 ZM-720.54 102.6917 L-720.54 112.7386 L-722.1025 112.7386 L-722.1025 102.6917 L-725.7431 102.6917 L-725.7431 101.2855 L-716.7275 101.2855 L-716.7275 102.6917 L-720.54 102.6917 ZM-708.4853 108.6917 L-714.5165 108.6917 Q-714.5165 110.1605 -713.7197 110.9573 Q-713.0009 111.6448 -711.8915 111.6448 Q-710.6103 111.6448 -709.7665 110.8948 L-709.1415 111.973 Q-709.4853 112.3167 -710.1884 112.5667 Q-711.079 112.8948 -712.1728 112.8948 Q-713.7509 112.8948 -714.8603 111.8167 Q-716.079 110.6448 -716.079 108.6448 Q-716.079 106.5823 -714.829 105.3323 Q-713.704 104.2073 -712.1572 104.2073 Q-710.3759 104.2073 -709.3603 105.223 Q-708.3759 106.1917 -708.3759 107.7855 Q-708.3759 108.2855 -708.4853 108.6917 ZM-712.0947 105.4573 Q-713.079 105.4573 -713.7509 106.098 Q-714.3915 106.7073 -714.4853 107.6136 L-709.8447 107.6136 Q-709.8447 106.723 -710.4072 106.1136 Q-711.0322 105.4573 -712.0947 105.4573 ZM-700.7119 112.7386 L-703.5556 108.1448 L-706.1806 112.7386 L-707.7587 112.7386 L-704.3837 106.8011 L-707.4931 101.2855 L-705.9462 101.2855 L-703.5087 105.6136 L-700.8056 101.2855 L-699.2431 101.2855 L-702.79 106.8323 L-699.0556 112.7386 L-700.7119 112.7386 Z" stroke="none" clip-path="url(#clipPath10)"/>
      <rect x="-802.2392" y="-172.8968" clip-path="url(#clipPath2)" fill="rgb(245,245,245)" width="163.125" rx="4" ry="4" height="127.3636" stroke="none"/>
    </g>
    <g stroke-linecap="butt" transform="matrix(1,0,0,1,881,533)" fill="rgb(95,122,173)" text-rendering="geometricPrecision" shape-rendering="geometricPrecision" stroke="rgb(95,122,173)" stroke-width="2" stroke-miterlimit="1.45">
      <rect x="-802.2392" y="-172.8968" clip-path="url(#clipPath2)" fill="none" width="163.125" rx="4" ry="4" height="127.3636"/>
    </g>
    <g fill="rgb(88,110,117)" text-rendering="geometricPrecision" shape-rendering="geometricPrecision" transform="matrix(1,0,0,1,881,533)" stroke="rgb(88,110,117)">
      <path d="M-749.725 -103.5919 L-750.2875 -103.5919 L-753.35 -112.4669 L-756.2094 -103.5919 L-756.7719 -103.5919 L-760.8344 -116.6388 L-759.0063 -116.6388 L-756.4125 -107.6544 L-753.5844 -116.6388 L-752.975 -116.6388 L-750.1782 -107.67 L-747.5532 -116.6388 L-745.725 -116.6388 L-749.725 -103.5919 ZM-745.0287 -108.4981 Q-745.0287 -110.67 -743.8569 -112.0138 Q-742.685 -113.3575 -740.7787 -113.3575 Q-738.7475 -113.3575 -737.6381 -112.0606 Q-736.5131 -110.7794 -736.5131 -108.4981 Q-736.5131 -106.2169 -737.6694 -104.9044 Q-738.81 -103.5919 -740.7787 -103.5919 Q-742.7787 -103.5919 -743.9037 -104.92 Q-745.0287 -106.2481 -745.0287 -108.4981 ZM-743.2787 -108.4981 Q-743.2787 -104.9513 -740.7787 -104.9513 Q-739.6069 -104.9513 -738.9506 -105.8888 Q-738.2787 -106.8419 -738.2787 -108.4981 Q-738.2787 -111.9981 -740.7787 -111.9981 Q-741.9194 -111.9981 -742.6069 -111.0606 Q-743.2787 -110.1231 -743.2787 -108.4981 ZM-729.6508 -111.5763 Q-730.1977 -111.9513 -730.7446 -111.9513 Q-731.6352 -111.9513 -732.3071 -111.1231 Q-732.9633 -110.3106 -732.9633 -109.1544 L-732.9633 -103.7638 L-734.6352 -103.7638 L-734.6352 -113.17 L-732.9633 -113.17 L-732.9633 -111.67 Q-732.0414 -113.3575 -730.2446 -113.3575 Q-729.7914 -113.3575 -728.9477 -113.2013 L-729.6508 -111.5763 ZM-721.7953 -103.7794 L-721.7953 -104.4669 Q-722.6703 -103.5919 -724.3266 -103.5919 Q-726.0922 -103.5919 -727.2016 -104.8575 Q-728.2953 -106.1231 -728.2953 -108.2325 Q-728.2953 -110.3575 -727.0297 -111.8575 Q-725.7641 -113.3575 -724.0141 -113.3575 Q-722.5453 -113.3575 -721.7953 -112.67 L-721.7953 -117.0294 L-720.1235 -117.0294 L-720.1235 -103.7794 L-721.7953 -103.7794 ZM-721.7953 -110.9981 Q-722.436 -111.9513 -723.5297 -111.9513 Q-724.8735 -111.9513 -725.7016 -110.9356 Q-726.5297 -109.9356 -726.5297 -108.3888 Q-726.5297 -104.9981 -723.436 -104.9981 Q-723.0453 -104.9981 -722.4985 -105.2481 Q-721.936 -105.4981 -721.7953 -105.7794 L-721.7953 -110.9981 ZM-717.5327 -108.2169 L-717.5327 -109.7481 L-713.767 -109.7481 L-713.767 -108.2169 L-717.5327 -108.2169 ZM-704.267 -103.7638 L-707.4702 -108.9356 L-710.4233 -103.7638 L-712.2045 -103.7638 L-708.4077 -110.4513 L-711.892 -116.6544 L-710.1577 -116.6388 L-707.4077 -111.7638 L-704.3764 -116.6388 L-702.6108 -116.6388 L-706.6108 -110.4044 L-702.4077 -103.7638 L-704.267 -103.7638 ZM-691.2787 -103.7638 L-692.81 -112.0294 L-695.6225 -103.5919 L-696.06 -103.5919 L-698.9506 -112.0294 L-700.4506 -103.7638 L-702.1225 -103.7638 L-699.7162 -116.6388 L-698.9037 -116.6388 L-695.8412 -107.2481 L-693.0131 -116.6388 L-692.2162 -116.6388 L-689.6069 -103.7638 L-691.2787 -103.7638 ZM-688.2114 -103.7638 L-688.2114 -116.6388 L-686.4457 -116.6388 L-686.4457 -105.3419 L-680.6332 -105.3419 L-680.6332 -103.7638 L-688.2114 -103.7638 Z" stroke="none" clip-path="url(#clipPath11)"/>
      <rect x="-802.2392" y="261.5416" clip-path="url(#clipPath2)" fill="rgb(245,245,245)" width="163.125" rx="4" ry="4" height="127.3636" stroke="none"/>
    </g>
    <g stroke-linecap="butt" transform="matrix(1,0,0,1,881,533)" fill="rgb(95,122,173)" text-rendering="geometricPrecision" shape-rendering="geometricPrecision" stroke="rgb(95,122,173)" stroke-width="2" stroke-miterlimit="1.45">
      <rect x="-802.2392" y="261.5416" clip-path="url(#clipPath2)" fill="none" width="163.125" rx="4" ry="4" height="127.3636"/>
    </g>
    <g fill="rgb(88,110,117)" text-rendering="geometricPrecision" shape-rendering="geometricPrecision" transform="matrix(1,0,0,1,881,533)" stroke="rgb(88,110,117)">
      <path d="M-746.9775 329.9578 L-748.3369 322.5984 L-750.8369 330.114 L-751.2275 330.114 L-753.8056 322.5984 L-755.1337 329.9578 L-756.6181 329.9578 L-754.4775 318.5046 L-753.7587 318.5046 L-751.04 326.864 L-748.5244 318.5046 L-747.8212 318.5046 L-745.4931 329.9578 L-746.9775 329.9578 ZM-739.6415 328.989 Q-740.5322 330.114 -742.3603 330.114 Q-743.3447 330.114 -744.079 329.3953 Q-744.7978 328.6765 -744.7978 327.614 Q-744.7978 326.3484 -743.6884 325.4734 Q-742.5634 324.5828 -740.8447 324.5828 Q-740.3759 324.5828 -739.7822 324.7859 Q-739.7822 322.7546 -741.5947 322.7546 Q-742.9853 322.7546 -743.7353 323.5046 L-744.3603 322.2703 Q-743.9384 321.9265 -743.1884 321.6765 Q-742.4384 321.4265 -741.7665 321.4265 Q-739.9384 321.4265 -739.1259 322.2546 Q-738.2978 323.0828 -738.2978 324.8953 L-738.2978 327.8953 Q-738.2978 328.989 -737.6415 329.364 L-737.6415 330.114 Q-738.5478 330.114 -739.0009 329.8484 Q-739.4384 329.5828 -739.6415 328.989 ZM-739.7822 325.8484 Q-740.4853 325.6921 -740.7665 325.6921 Q-741.8915 325.6921 -742.6103 326.2703 Q-743.3134 326.8484 -743.3134 327.6296 Q-743.3134 328.9421 -741.7665 328.9421 Q-740.6415 328.9421 -739.7822 327.864 L-739.7822 325.8484 ZM-731.4072 323.0203 Q-731.8915 322.6765 -732.3915 322.6765 Q-733.1728 322.6765 -733.7665 323.4109 Q-734.3603 324.1296 -734.3603 325.1609 L-734.3603 329.9578 L-735.8447 329.9578 L-735.8447 321.5828 L-734.3603 321.5828 L-734.3603 322.9265 Q-733.5478 321.4265 -731.9384 321.4265 Q-731.5478 321.4265 -730.7978 321.5671 L-731.4072 323.0203 ZM-724.329 329.9578 L-726.954 325.7703 L-728.2509 327.0984 L-728.2509 329.9578 L-729.7353 329.9578 L-729.7353 318.1609 L-728.2509 318.1609 L-728.2509 325.4734 L-725.0478 321.5828 L-723.3134 321.5828 L-726.0009 324.7703 L-722.7197 329.9578 L-724.329 329.9578 ZM-716.3681 329.9421 L-716.3681 329.3328 Q-717.1337 330.114 -718.6181 330.114 Q-720.1806 330.114 -721.165 328.989 Q-722.1337 327.8484 -722.1337 325.9734 Q-722.1337 324.0984 -721.0087 322.7703 Q-719.8837 321.4265 -718.3369 321.4265 Q-717.04 321.4265 -716.3681 322.0359 L-716.3681 318.1609 L-714.8837 318.1609 L-714.8837 329.9421 L-716.3681 329.9421 ZM-716.3681 323.5203 Q-716.9306 322.6765 -717.8994 322.6765 Q-719.1025 322.6765 -719.8369 323.5671 Q-720.5712 324.4578 -720.5712 325.8328 Q-720.5712 328.864 -717.8212 328.864 Q-717.4775 328.864 -716.9931 328.6453 Q-716.4931 328.4109 -716.3681 328.1609 L-716.3681 323.5203 ZM-713.2978 325.7546 Q-713.2978 323.8171 -712.2665 322.6296 Q-711.2197 321.4265 -709.5165 321.4265 Q-707.7197 321.4265 -706.7353 322.5828 Q-705.7353 323.7234 -705.7353 325.7546 Q-705.7353 327.7703 -706.7509 328.9421 Q-707.7665 330.114 -709.5165 330.114 Q-711.2978 330.114 -712.2978 328.9421 Q-713.2978 327.7546 -713.2978 325.7546 ZM-711.7353 325.7546 Q-711.7353 328.8953 -709.5165 328.8953 Q-708.4697 328.8953 -707.8915 328.0515 Q-707.2978 327.2078 -707.2978 325.7546 Q-707.2978 322.6453 -709.5165 322.6453 Q-710.5322 322.6453 -711.1415 323.4734 Q-711.7353 324.3015 -711.7353 325.7546 ZM-696.4306 330.114 L-696.8212 330.114 L-699.2744 324.4109 L-701.7275 330.114 L-702.1181 330.114 L-705.1025 321.5671 L-703.5244 321.5671 L-701.7275 327.0515 L-699.5087 321.5671 L-699.1181 321.5671 L-696.8212 327.0515 L-694.8994 321.5671 L-693.4306 321.5671 L-696.4306 330.114 ZM-687.1181 329.9578 L-687.1181 325.0828 Q-687.1181 323.7546 -687.5244 323.2234 Q-687.915 322.6765 -688.8681 322.6765 Q-689.3681 322.6765 -689.9306 322.989 Q-690.4775 323.2859 -690.7744 323.739 L-690.7744 329.9578 L-692.2587 329.9578 L-692.2587 321.5828 L-691.2431 321.5828 L-690.7744 322.6609 Q-690.04 321.4265 -688.3837 321.4265 Q-685.6337 321.4265 -685.6337 324.7703 L-685.6337 329.9578 L-687.1181 329.9578 Z" stroke="none" clip-path="url(#clipPath12)"/>
      <rect x="58.7051" y="338.8389" clip-path="url(#clipPath2)" fill="rgb(245,245,245)" width="130.9375" rx="4" ry="4" height="156.8364" stroke="none"/>
    </g>
    <g stroke-linecap="butt" transform="matrix(1,0,0,1,881,533)" fill="rgb(95,122,173)" text-rendering="geometricPrecision" shape-rendering="geometricPrecision" stroke="rgb(95,122,173)" stroke-width="2" stroke-miterlimit="1.45">
      <rect x="58.7051" y="338.8389" clip-path="url(#clipPath2)" fill="none" width="130.9375" rx="4" ry="4" height="156.8364"/>
    </g>
    <g fill="rgb(88,110,117)" text-rendering="geometricPrecision" shape-rendering="geometricPrecision" transform="matrix(1,0,0,1,881,533)" stroke="rgb(88,110,117)">
      <path d="M114.6308 417.9446 L108.5996 417.9446 Q108.5996 419.4133 109.3965 420.2102 Q110.1152 420.8977 111.2246 420.8977 Q112.5058 420.8977 113.3496 420.1477 L113.9746 421.2258 Q113.6308 421.5696 112.9277 421.8196 Q112.0371 422.1477 110.9433 422.1477 Q109.3652 422.1477 108.2558 421.0696 Q107.0371 419.8977 107.0371 417.8977 Q107.0371 415.8352 108.2871 414.5852 Q109.4121 413.4602 110.959 413.4602 Q112.7402 413.4602 113.7558 414.4758 Q114.7402 415.4446 114.7402 417.0383 Q114.7402 417.5383 114.6308 417.9446 ZM111.0215 414.7102 Q110.0371 414.7102 109.3652 415.3508 Q108.7246 415.9602 108.6308 416.8665 L113.2715 416.8665 Q113.2715 415.9758 112.709 415.3665 Q112.084 414.7102 111.0215 414.7102 ZM117.9824 417.5852 L117.9824 421.9915 L116.4199 421.9915 L116.4199 410.5383 Q118.2011 410.4602 118.5605 410.4602 Q123.5449 410.4602 123.5449 413.804 Q123.5449 417.6633 119.1386 417.6633 Q118.873 417.6633 117.9824 417.5852 ZM117.9824 411.9446 L117.9824 416.179 Q118.9824 416.2571 119.0293 416.2571 Q121.9355 416.2571 121.9355 413.9602 Q121.9355 411.8665 118.8418 411.8665 Q118.5293 411.8665 117.9824 411.9446 ZM126.6386 413.6165 L126.6386 418.9602 Q126.6386 420.8977 128.3105 420.8977 Q129.0449 420.8977 129.6543 420.4758 Q130.2636 420.054 130.4668 419.4915 L130.4668 413.6165 L131.9511 413.6165 L131.9511 421.9915 L130.4668 421.9915 L130.4668 420.8352 Q130.2168 421.3196 129.4511 421.7415 Q128.7011 422.1477 127.9824 422.1477 Q126.6074 422.1477 125.873 421.3665 Q125.1543 420.5696 125.1543 419.1165 L125.1543 413.6165 L126.6386 413.6165 ZM135.2402 421.3821 L134.709 422.1477 L133.9746 422.1477 L133.9746 410.1946 L135.459 410.1946 L135.459 414.2415 Q135.6621 413.9446 136.2402 413.7102 Q136.834 413.4602 137.3965 413.4602 Q139.1152 413.4602 140.1777 414.6477 Q141.2402 415.8352 141.2402 417.6477 Q141.2402 419.7415 140.1621 420.9446 Q139.0996 422.1477 137.2715 422.1477 Q136.6777 422.1477 136.0996 421.929 Q135.5371 421.6946 135.2402 421.3821 ZM135.459 415.3665 L135.459 420.1946 Q135.459 420.3196 136.0058 420.6165 Q136.5683 420.8977 136.8496 420.8977 Q138.3652 420.8977 139.0215 420.179 Q139.6777 419.4446 139.6777 417.7258 Q139.6777 416.304 138.9121 415.5071 Q138.1465 414.7102 136.8496 414.7102 Q136.584 414.7102 136.084 414.9446 Q135.5996 415.179 135.459 415.3665 Z" stroke="none" clip-path="url(#clipPath13)"/>
      <rect x="-493.6002" y="-393.5205" clip-path="url(#clipPath2)" fill="rgb(245,245,245)" width="177.9167" rx="4" ry="4" height="112.6273" stroke="none"/>
    </g>
    <g stroke-linecap="butt" transform="matrix(1,0,0,1,881,533)" fill="rgb(95,122,173)" text-rendering="geometricPrecision" shape-rendering="geometricPrecision" stroke="rgb(95,122,173)" stroke-width="2" stroke-miterlimit="1.45">
      <rect x="-493.6002" y="-393.5205" clip-path="url(#clipPath2)" fill="none" width="177.9167" rx="4" ry="4" height="112.6273"/>
    </g>
    <g fill="rgb(236,151,69)" text-rendering="geometricPrecision" shape-rendering="geometricPrecision" transform="matrix(1,0,0,1,881,533)" stroke="rgb(236,151,69)">
      <path d="M-442.3147 -331.0389 L-445.1897 -331.0389 L-445.1897 -345.3514 Q-442.4397 -345.4451 -441.6741 -345.4451 Q-438.6741 -345.4451 -436.9241 -343.617 Q-435.1741 -341.8045 -435.1741 -338.7733 Q-435.1741 -331.0389 -442.3147 -331.0389 ZM-443.2366 -343.5858 L-443.2366 -332.8983 Q-442.5804 -332.8045 -441.6116 -332.8045 Q-439.5647 -332.8045 -438.3929 -334.3358 Q-437.221 -335.867 -437.221 -338.6014 Q-437.221 -343.6795 -441.7835 -343.6795 Q-442.0647 -343.6795 -443.2366 -343.5858 ZM-432.5804 -331.0389 L-432.5804 -345.3514 L-430.6272 -345.3514 L-430.6272 -331.0389 L-432.5804 -331.0389 ZM-422.1389 -343.5858 L-422.1389 -331.0389 L-424.0921 -331.0389 L-424.0921 -343.5858 L-428.6546 -343.5858 L-428.6546 -345.3514 L-417.3889 -345.3514 L-417.3889 -343.5858 L-422.1389 -343.5858 ZM-407.6214 -331.0389 L-408.6057 -334.0545 L-413.9339 -334.0545 L-414.9807 -331.0389 L-417.1682 -331.0389 L-411.3714 -345.5389 L-410.8401 -345.5389 L-405.4495 -331.0389 L-407.6214 -331.0389 ZM-411.1995 -341.7889 L-413.4182 -335.492 L-409.1682 -335.492 L-411.1995 -341.7889 ZM-403.8714 -335.9764 L-403.8714 -337.6951 L-399.6839 -337.6951 L-399.6839 -335.9764 L-403.8714 -335.9764 ZM-389.137 -331.0389 L-392.6995 -336.7889 L-395.9807 -331.0389 L-397.9495 -331.0389 L-393.7307 -338.4608 L-397.6057 -345.3514 L-395.6839 -345.3514 L-392.6214 -339.9295 L-389.262 -345.3514 L-387.2932 -345.3514 L-391.7307 -338.4295 L-387.0745 -331.0389 L-389.137 -331.0389 ZM-374.7073 -331.0389 L-376.4104 -340.2264 L-379.5354 -330.8358 L-380.0198 -330.8358 L-383.2229 -340.2264 L-384.8948 -331.0389 L-386.7386 -331.0389 L-384.0667 -345.3514 L-383.1761 -345.3514 L-379.7698 -334.9139 L-376.6292 -345.3514 L-375.7542 -345.3514 L-372.8479 -331.0389 L-374.7073 -331.0389 ZM-371.2835 -331.0389 L-371.2835 -345.3514 L-369.3304 -345.3514 L-369.3304 -332.8045 L-362.8616 -332.8045 L-362.8616 -331.0389 L-371.2835 -331.0389 Z" stroke="none" clip-path="url(#clipPath14)"/>
      <rect x="-173.2746" y="-80.6802" clip-path="url(#clipPath2)" fill="rgb(245,245,245)" width="83.9583" rx="4" ry="4" height="230.2545" stroke="none"/>
    </g>
    <g stroke-linecap="butt" transform="matrix(1,0,0,1,881,533)" fill="rgb(95,122,173)" text-rendering="geometricPrecision" shape-rendering="geometricPrecision" stroke="rgb(95,122,173)" stroke-width="2" stroke-miterlimit="1.45">
      <rect x="-173.2746" y="-80.6802" clip-path="url(#clipPath2)" fill="none" width="83.9583" rx="4" ry="4" height="230.2545"/>
    </g>
    <g fill="rgb(88,110,117)" text-rendering="geometricPrecision" shape-rendering="geometricPrecision" transform="matrix(1,0,0,1,881,533)" stroke="rgb(88,110,117)">
      <path d="M-151.1626 35.1345 L-157.1939 35.1345 Q-157.1939 36.6033 -156.397 37.4002 Q-155.6782 38.0877 -154.5689 38.0877 Q-153.2876 38.0877 -152.4439 37.3377 L-151.8189 38.4158 Q-152.1626 38.7595 -152.8657 39.0095 Q-153.7564 39.3377 -154.8501 39.3377 Q-156.4282 39.3377 -157.5376 38.2595 Q-158.7564 37.0877 -158.7564 35.0877 Q-158.7564 33.0252 -157.5064 31.7752 Q-156.3814 30.6502 -154.8345 30.6502 Q-153.0532 30.6502 -152.0376 31.6658 Q-151.0532 32.6345 -151.0532 34.2283 Q-151.0532 34.7283 -151.1626 35.1345 ZM-154.772 31.9002 Q-155.7564 31.9002 -156.4282 32.5408 Q-157.0689 33.1502 -157.1626 34.0564 L-152.522 34.0564 Q-152.522 33.1658 -153.0845 32.5564 Q-153.7095 31.9002 -154.772 31.9002 ZM-144.3892 39.1814 L-146.6704 36.1345 L-148.7173 39.1814 L-150.4517 39.1814 L-147.4048 34.9002 L-150.2017 30.8064 L-148.5298 30.8064 L-146.6548 33.6814 L-144.5454 30.8064 L-142.9048 30.8064 L-145.9517 34.9002 L-142.6236 39.1814 L-144.3892 39.1814 ZM-134.7954 39.1814 L-134.7954 33.6502 L-139.7954 33.6502 L-139.7954 39.1814 L-141.3579 39.1814 L-141.3579 27.7283 L-139.7954 27.7283 L-139.7954 32.322 L-134.7954 32.322 L-134.7954 27.7283 L-133.2329 27.7283 L-133.2329 39.1814 L-134.7954 39.1814 ZM-126.7173 29.1345 L-126.7173 39.1814 L-128.2798 39.1814 L-128.2798 29.1345 L-131.9204 29.1345 L-131.9204 27.7283 L-122.9048 27.7283 L-122.9048 29.1345 L-126.7173 29.1345 ZM-112.9751 39.1814 L-114.3345 31.822 L-116.8345 39.3377 L-117.2251 39.3377 L-119.8032 31.822 L-121.1314 39.1814 L-122.6157 39.1814 L-120.4751 27.7283 L-119.7564 27.7283 L-117.0376 36.0877 L-114.522 27.7283 L-113.8189 27.7283 L-111.4907 39.1814 L-112.9751 39.1814 ZM-110.2486 39.1814 L-110.2486 27.7283 L-108.6861 27.7283 L-108.6861 37.7752 L-103.5142 37.7752 L-103.5142 39.1814 L-110.2486 39.1814 Z" stroke="none" clip-path="url(#clipPath15)"/>
    </g>
    <g text-rendering="geometricPrecision" stroke-miterlimit="1.45" shape-rendering="geometricPrecision" transform="matrix(1,0,0,1,881,533)" stroke-linecap="butt">
      <path fill="none" d="M-649.808 -337.2068 L-501.6164 -337.2068" clip-path="url(#clipPath2)"/>
      <path d="M-493.6164 -337.2068 L-505.6164 -342.2068 L-502.6164 -337.2068 L-505.6164 -332.2068 Z" clip-path="url(#clipPath2)" stroke="none"/>
      <path fill="none" d="M-639.1033 -109.5632 L-616.3605 -109.6602 L-574.1557 -110.7178 L-537.9691 -112.7773 L-507.3378 -116.1727 L-481.7988 -121.238 L-460.8893 -128.307 L-444.1462 -137.7139 L-431.1067 -149.7926 L-421.3078 -164.877 L-414.2865 -183.3012 L-409.58 -205.399 L-406.7252 -231.5045 L-405.2592 -261.9517 L-405.1696 -272.876" clip-path="url(#clipPath2)"/>
      <path d="M-405.1039 -280.8757 L-410.2022 -268.9171 L-405.1778 -271.876 L-400.2025 -268.8351 Z" clip-path="url(#clipPath2)" stroke="none"/>
      <path fill="none" d="M-639.1033 107.3242 L-616.3605 107.1347 L-574.1557 105.0695 L-537.9691 101.0478 L-507.3378 94.4175 L-493.9607 89.9202 L-481.7988 84.5263 L-470.7943 78.1541 L-460.8893 70.7221 L-452.0259 62.1489 L-444.1462 52.3528 L-437.1925 41.2524 L-431.1067 28.7662 L-425.8311 14.8126 L-421.3078 -0.6899 L-414.2865 -36.6676 L-409.58 -79.8192 L-406.7252 -130.7967 L-405.2592 -190.2524 L-404.912 -272.915" clip-path="url(#clipPath2)"/>
      <path d="M-404.8784 -280.915 L-409.9287 -268.9361 L-404.9162 -271.9151 L-399.9288 -268.8941 Z" clip-path="url(#clipPath2)" stroke="none"/>
      <path fill="none" d="M-639.1346 324.4591 L-616.3605 323.9296 L-574.1557 320.8568 L-537.9691 314.8729 L-521.988 310.4861 L-507.3378 305.0076 L-493.9607 298.3162 L-481.7988 290.2906 L-470.7943 280.8094 L-460.8893 269.7513 L-452.0259 256.9952 L-444.1462 242.4196 L-437.1925 225.9033 L-431.1067 207.325 L-425.8311 186.5634 L-421.3078 163.4973 L-414.2865 109.9659 L-409.58 45.7606 L-406.7252 -30.0889 L-405.2592 -118.5531 L-404.8234 -272.9153" clip-path="url(#clipPath2)"/>
      <path d="M-404.8008 -280.9153 L-409.8347 -268.9294 L-404.8262 -271.9153 L-399.8347 -268.9012 Z" clip-path="url(#clipPath2)" stroke="none"/>
      <path fill="none" d="M-315.656 -337.2068 L36.1486 -337.2068" clip-path="url(#clipPath2)"/>
      <path d="M44.1486 -337.2068 L32.1486 -342.2068 L35.1486 -337.2068 L32.1486 -332.2068 Z" clip-path="url(#clipPath2)" stroke="none"/>
      <path fill="none" d="M-315.6938 -336.4912 L-314.4162 -336.481 L-277.9122 -334.757 L-246.6135 -331.3997 L-220.1197 -325.8649 L-198.0304 -317.6079 L-188.5123 -312.2885 L-179.9452 -306.0845 L-172.2791 -298.9277 L-165.4637 -290.7501 L-159.4492 -281.4837 L-154.1855 -271.0605 L-145.7102 -246.471 L-139.6373 -216.4375 L-135.5665 -180.4154 L-133.0973 -137.8603 L-131.8401 -88.6503 L-131.8396 -88.5503" clip-path="url(#clipPath2)"/>
      <path d="M-131.7958 -80.5505 L-126.8617 -92.5777 L-131.8451 -89.5503 L-136.8615 -92.5229 Z" clip-path="url(#clipPath2)" stroke="none"/>
      <path fill="none" d="M-89.3109 3.1612 L222.194 -228.9641" clip-path="url(#clipPath2)"/>
      <path d="M228.6088 -233.7443 L215.9989 -230.5833 L221.3921 -228.3666 L221.9742 -222.5647 Z" clip-path="url(#clipPath2)" stroke="none"/>
      <path fill="none" d="M-89.3421 34.447 L405.2681 34.447" clip-path="url(#clipPath2)"/>
      <path d="M413.2681 34.447 L401.2681 29.447 L404.2681 34.447 L401.2681 39.447 Z" clip-path="url(#clipPath2)" stroke="none"/>
      <path fill="none" d="M-89.3298 21.5076 L301.5511 -99.0142" clip-path="url(#clipPath2)"/>
      <path d="M309.1959 -101.3714 L296.2554 -102.6137 L300.5955 -98.7196 L299.2019 -93.0576 Z" clip-path="url(#clipPath2)" stroke="none"/>
      <path fill="none" d="M-89.3298 47.3865 L301.5511 167.9083" clip-path="url(#clipPath2)"/>
      <path d="M309.1959 170.2655 L299.2019 161.9517 L300.5955 167.6136 L296.2554 171.5077 Z" clip-path="url(#clipPath2)" stroke="none"/>
      <path fill="none" d="M-89.3109 65.9537 L213.0515 292.8567" clip-path="url(#clipPath2)"/>
      <path d="M219.4501 297.6585 L212.8532 286.4567 L212.2516 292.2565 L206.851 294.455 Z" clip-path="url(#clipPath2)" stroke="none"/>
      <path fill="none" d="M-89.3045 97.3686 L67.3798 332.1536" clip-path="url(#clipPath2)"/>
      <path d="M71.8205 338.8079 L69.3183 326.051 L66.8247 331.3218 L61.0005 331.6019 Z" clip-path="url(#clipPath2)" stroke="none"/>
    </g>
  </g>
</svg>
