<?xml version="1.0" encoding="UTF-8"?><svg xmlns="http://www.w3.org/2000/svg" xmlns:xlink="http://www.w3.org/1999/xlink" fill-opacity="1" color-rendering="auto" color-interpolation="auto" text-rendering="auto" stroke="black" stroke-linecap="square" width="1084" stroke-miterlimit="10" shape-rendering="auto" stroke-opacity="1" fill="black" stroke-dasharray="none" font-weight="normal" stroke-width="1" height="764" font-family="'Dialog'" font-style="normal" stroke-linejoin="miter" font-size="12px" stroke-dashoffset="0" image-rendering="auto">
  <!--Generated by ySVG 2.5-->
  <defs id="genericDefs"/>
  <g>
    <defs id="defs1">
      <clipPath clipPathUnits="userSpaceOnUse" id="clipPath1">
        <path d="M0 0 L1084 0 L1084 764 L0 764 L0 0 Z"/>
      </clipPath>
      <clipPath clipPathUnits="userSpaceOnUse" id="clipPath2">
        <path d="M-199 -189 L885 -189 L885 575 L-199 575 L-199 -189 Z"/>
      </clipPath>
      <clipPath clipPathUnits="userSpaceOnUse" id="clipPath3">
        <path d="M164.7539 -18.5025 L164.7539 1065.4974 L-599.2461 1065.4974 L-599.2461 -18.5025 L164.7539 -18.5025 Z"/>
      </clipPath>
      <clipPath clipPathUnits="userSpaceOnUse" id="clipPath4">
        <path d="M239.827 -18.5025 L239.827 1065.4974 L-524.173 1065.4974 L-524.173 -18.5025 L239.827 -18.5025 Z"/>
      </clipPath>
      <clipPath clipPathUnits="userSpaceOnUse" id="clipPath5">
        <path d="M354.1391 -18.5025 L354.1391 1065.4974 L-409.8609 1065.4974 L-409.8609 -18.5025 L354.1391 -18.5025 Z"/>
      </clipPath>
      <clipPath clipPathUnits="userSpaceOnUse" id="clipPath6">
        <path d="M611.5334 -18.5025 L611.5334 1065.4974 L-152.4666 1065.4974 L-152.4666 -18.5025 L611.5334 -18.5025 Z"/>
      </clipPath>
      <clipPath clipPathUnits="userSpaceOnUse" id="clipPath7">
        <path d="M234.125 328.9316 L234.125 363.4434 L350.125 363.4434 L350.125 328.9316 Z"/>
      </clipPath>
      <clipPath clipPathUnits="userSpaceOnUse" id="clipPath8">
        <path d="M-64.0138 262.0596 L-64.0138 280.3154 L51.9862 280.3154 L51.9862 262.0596 Z"/>
      </clipPath>
      <clipPath clipPathUnits="userSpaceOnUse" id="clipPath9">
        <path d="M-64.0138 412.0596 L-64.0138 430.3154 L51.9862 430.3154 L51.9862 412.0596 Z"/>
      </clipPath>
      <clipPath clipPathUnits="userSpaceOnUse" id="clipPath10">
        <path d="M-64.0138 337.0596 L-64.0138 355.3154 L51.9862 355.3154 L51.9862 337.0596 Z"/>
      </clipPath>
      <clipPath clipPathUnits="userSpaceOnUse" id="clipPath11">
        <path d="M234.125 114.7893 L234.125 133.0452 L350.125 133.0452 L350.125 114.7893 Z"/>
      </clipPath>
      <clipPath clipPathUnits="userSpaceOnUse" id="clipPath12">
        <path d="M234.125 -67.3154 L234.125 -49.0596 L350.125 -49.0596 L350.125 -67.3154 Z"/>
      </clipPath>
      <clipPath clipPathUnits="userSpaceOnUse" id="clipPath13">
        <path d="M-64.0138 -67.3154 L-64.0138 -49.0596 L51.9862 -49.0596 L51.9862 -67.3154 Z"/>
      </clipPath>
      <clipPath clipPathUnits="userSpaceOnUse" id="clipPath14">
        <path d="M620.7031 200.1834 L620.7031 218.4392 L736.7031 218.4392 L736.7031 200.1834 Z"/>
      </clipPath>
      <clipPath clipPathUnits="userSpaceOnUse" id="clipPath15">
        <path d="M620.7031 255.4965 L620.7031 273.7523 L736.7031 273.7523 L736.7031 255.4965 Z"/>
      </clipPath>
      <clipPath clipPathUnits="userSpaceOnUse" id="clipPath16">
        <path d="M620.7031 310.8096 L620.7031 329.0654 L736.7031 329.0654 L736.7031 310.8096 Z"/>
      </clipPath>
      <clipPath clipPathUnits="userSpaceOnUse" id="clipPath17">
        <path d="M620.7031 421.4358 L620.7031 439.6917 L736.7031 439.6917 L736.7031 421.4358 Z"/>
      </clipPath>
      <clipPath clipPathUnits="userSpaceOnUse" id="clipPath18">
        <path d="M620.7031 114.7893 L620.7031 133.0452 L736.7031 133.0452 L736.7031 114.7893 Z"/>
      </clipPath>
      <clipPath clipPathUnits="userSpaceOnUse" id="clipPath19">
        <path d="M620.7031 -67.3154 L620.7031 -49.0596 L736.7031 -49.0596 L736.7031 -67.3154 Z"/>
      </clipPath>
      <clipPath clipPathUnits="userSpaceOnUse" id="clipPath20">
        <path d="M-64.0138 114.7893 L-64.0138 133.0452 L51.9862 133.0452 L51.9862 114.7893 Z"/>
      </clipPath>
      <clipPath clipPathUnits="userSpaceOnUse" id="clipPath21">
        <path d="M427.4141 310.8096 L427.4141 329.0654 L543.4141 329.0654 L543.4141 310.8096 Z"/>
      </clipPath>
      <clipPath clipPathUnits="userSpaceOnUse" id="clipPath22">
        <path d="M186 31.9584 L186 50.2142 L398.25 50.2142 L398.25 31.9584 Z"/>
      </clipPath>
      <clipPath clipPathUnits="userSpaceOnUse" id="clipPath23">
        <path d="M620.7031 366.1227 L620.7031 384.3785 L736.7031 384.3785 L736.7031 366.1227 Z"/>
      </clipPath>
      <clipPath clipPathUnits="userSpaceOnUse" id="clipPath24">
        <path d="M620.7031 476.7488 L620.7031 495.0047 L736.7031 495.0047 L736.7031 476.7488 Z"/>
      </clipPath>
    </defs>
    <g fill="white" text-rendering="geometricPrecision" shape-rendering="geometricPrecision" transform="translate(199,189)" stroke="white">
      <rect x="-199" width="1084" height="764" y="-189" clip-path="url(#clipPath2)" stroke="none"/>
    </g>
    <g fill="rgb(253,249,245)" text-rendering="geometricPrecision" shape-rendering="geometricPrecision" transform="matrix(1,0,0,1,199,189)" stroke="rgb(253,249,245)">
      <path d="M-183.4975 -173.4375 L-183.4975 -143.4375 L869.1442 -143.4375 L869.1442 -173.4375 Z" stroke="none" clip-path="url(#clipPath2)"/>
      <rect x="-183.4975" width="1052.6417" height="702.5833" y="-143.4375" clip-path="url(#clipPath2)" stroke="none"/>
      <rect x="-159.4975" y="-143.4375" clip-path="url(#clipPath2)" fill="rgb(95,122,173)" width="1028.6417" height="24" stroke="none"/>
      <rect x="-183.4975" y="-119.4375" clip-path="url(#clipPath2)" fill="rgb(95,122,173)" width="24" height="118.75" stroke="none"/>
      <rect x="-159.4975" width="1028.6417" height="118.75" y="-119.4375" clip-path="url(#clipPath2)" stroke="none"/>
      <rect x="-183.4975" y="-0.6875" clip-path="url(#clipPath2)" fill="rgb(95,122,173)" width="24" height="81.4899" stroke="none"/>
      <rect x="-159.4975" width="1028.6417" height="81.4899" y="-0.6875" clip-path="url(#clipPath2)" stroke="none"/>
      <rect x="-183.4975" y="80.8024" clip-path="url(#clipPath2)" fill="rgb(95,122,173)" width="24" height="87.2827" stroke="none"/>
      <rect x="-159.4975" width="1028.6417" height="87.2827" y="80.8024" clip-path="url(#clipPath2)" stroke="none"/>
      <rect x="-183.4975" y="168.0851" clip-path="url(#clipPath2)" fill="rgb(95,122,173)" width="24" height="391.0607" stroke="none"/>
      <rect x="-159.4975" width="1028.6417" height="391.0607" y="168.0851" clip-path="url(#clipPath2)" stroke="none"/>
    </g>
    <g stroke-linecap="butt" transform="matrix(1,0,0,1,199,189)" fill="rgb(95,122,173)" text-rendering="geometricPrecision" shape-rendering="geometricPrecision" stroke="rgb(95,122,173)" stroke-width="2" stroke-miterlimit="1.45">
      <rect fill="none" x="-183.4975" width="1052.6417" height="732.5833" y="-173.4375" clip-path="url(#clipPath2)"/>
      <rect fill="none" x="-159.4975" width="1028.6417" height="702.5833" y="-143.4375" clip-path="url(#clipPath2)"/>
      <rect fill="none" x="-183.4975" width="1052.6417" height="118.75" y="-119.4375" clip-path="url(#clipPath2)"/>
      <rect fill="none" x="-183.4975" width="1052.6417" height="81.4899" y="-0.6875" clip-path="url(#clipPath2)"/>
      <rect fill="none" x="-183.4975" width="1052.6417" height="87.2827" y="80.8024" clip-path="url(#clipPath2)"/>
      <rect fill="none" x="-183.4975" width="1052.6417" height="391.0607" y="168.0851" clip-path="url(#clipPath2)"/>
    </g>
    <g stroke-linecap="butt" font-size="16px" transform="matrix(1,0,0,1,199,189)" fill="rgb(88,110,117)" text-rendering="geometricPrecision" font-family="'Trebuchet MS'" shape-rendering="geometricPrecision" stroke="rgb(88,110,117)" font-weight="bold" stroke-miterlimit="1.45">
      <text x="213.2882" xml:space="preserve" y="-152.4141" clip-path="url(#clipPath2)" stroke="none">DWG Content Management Projekt</text>
    </g>
    <g stroke-linecap="butt" font-size="16px" transform="matrix(-0,-1,1,-0,18.5025,164.7539)" fill="rgb(253,249,245)" text-rendering="geometricPrecision" font-family="'Trebuchet MS'" shape-rendering="geometricPrecision" stroke="rgb(253,249,245)" stroke-miterlimit="1.45">
      <text x="2" xml:space="preserve" y="17.0234" clip-path="url(#clipPath3)" stroke="none">Workflow</text>
    </g>
    <g stroke-linecap="butt" font-size="16px" transform="matrix(-0,-1,1,-0,18.5025,239.827)" fill="rgb(253,249,245)" text-rendering="geometricPrecision" font-family="'Trebuchet MS'" shape-rendering="geometricPrecision" stroke="rgb(253,249,245)" stroke-miterlimit="1.45">
      <text x="2" xml:space="preserve" y="17.0234" clip-path="url(#clipPath4)" stroke="none">LA</text>
    </g>
    <g stroke-linecap="butt" font-size="16px" transform="matrix(-0,-1,1,-0,18.5025,354.1391)" fill="rgb(253,249,245)" text-rendering="geometricPrecision" font-family="sans-serif" shape-rendering="geometricPrecision" stroke="rgb(253,249,245)" stroke-miterlimit="1.45">
      <text x="2" xml:space="preserve" y="18.0859" clip-path="url(#clipPath5)" stroke="none">Datenbank</text>
    </g>
    <g stroke-linecap="butt" font-size="16px" transform="matrix(-0,-1,1,-0,18.5025,611.5334)" fill="rgb(253,249,245)" text-rendering="geometricPrecision" font-family="sans-serif" shape-rendering="geometricPrecision" stroke="rgb(253,249,245)" stroke-miterlimit="1.45">
      <text x="2" xml:space="preserve" y="18.0859" clip-path="url(#clipPath6)" stroke="none">XML Produktion</text>
    </g>
    <g fill="rgb(245,245,245)" text-rendering="geometricPrecision" shape-rendering="geometricPrecision" transform="matrix(1,0,0,1,199,189)" stroke="rgb(245,245,245)">
      <rect x="232.125" y="323.6875" clip-path="url(#clipPath2)" width="120" rx="4" ry="4" height="45" stroke="none"/>
    </g>
    <g stroke-linecap="butt" transform="matrix(1,0,0,1,199,189)" fill="rgb(95,122,173)" text-rendering="geometricPrecision" shape-rendering="geometricPrecision" stroke="rgb(95,122,173)" stroke-width="2" stroke-miterlimit="1.45">
      <rect x="232.125" y="323.6875" clip-path="url(#clipPath2)" fill="none" width="120" rx="4" ry="4" height="45"/>
    </g>
    <g fill="rgb(236,151,69)" text-rendering="geometricPrecision" shape-rendering="geometricPrecision" transform="matrix(1,0,0,1,199,189)" stroke="rgb(236,151,69)">
      <path d="M268.9116 342.0771 L266.896 342.0771 L266.896 332.0615 Q268.8179 331.999 269.3647 331.999 Q271.4585 331.999 272.6772 333.2803 Q273.9116 334.5459 273.9116 336.6553 Q273.9116 342.0771 268.9116 342.0771 ZM268.2554 333.2959 L268.2554 340.7803 Q268.7085 340.8428 269.396 340.8428 Q270.8335 340.8428 271.646 339.7646 Q272.4741 338.6865 272.4741 336.7803 Q272.4741 333.2178 269.271 333.2178 Q269.0835 333.2178 268.2554 333.2959 ZM275.7163 342.0771 L275.7163 332.0615 L277.0757 332.0615 L277.0757 342.0771 L275.7163 342.0771 ZM283.019 333.2959 L283.019 342.0771 L281.6597 342.0771 L281.6597 333.2959 L278.4722 333.2959 L278.4722 332.0615 L286.3472 332.0615 L286.3472 333.2959 L283.019 333.2959 ZM293.1938 342.0771 L292.4907 339.9678 L288.772 339.9678 L288.0376 342.0771 L286.5063 342.0771 L290.5688 331.9209 L290.9282 331.9209 L294.7095 342.0771 L293.1938 342.0771 ZM290.6938 334.5459 L289.1313 338.9521 L292.1157 338.9521 L290.6938 334.5459 ZM299.9819 342.0771 L299.9819 332.0615 L301.3413 332.0615 L301.3413 340.8428 L305.8726 340.8428 L305.8726 342.0771 L299.9819 342.0771 ZM310.7114 333.2959 L310.7114 342.0771 L309.3521 342.0771 L309.3521 333.2959 L306.1646 333.2959 L306.1646 332.0615 L314.0396 332.0615 L314.0396 333.2959 L310.7114 333.2959 Z" stroke="none" clip-path="url(#clipPath7)"/>
      <path d="M259.5977 349.5518 L259.5977 352.333 L263.1133 352.333 L263.1133 353.4893 L259.5977 353.4893 L259.5977 358.333 L258.2383 358.333 L258.2383 348.3174 L264.4258 348.3174 L264.4258 349.5518 L259.5977 349.5518 ZM269.4619 352.2549 Q269.04 351.9736 268.6025 351.9736 Q267.915 351.9736 267.3994 352.6143 Q266.8838 353.2393 266.8838 354.1299 L266.8838 358.333 L265.5869 358.333 L265.5869 351.0049 L266.8838 351.0049 L266.8838 352.1768 Q267.5869 350.8799 268.9932 350.8799 Q269.3369 350.8799 269.9932 351.0049 L269.4619 352.2549 ZM275.0596 357.4893 Q274.2783 358.4736 272.6689 358.4736 Q271.8096 358.4736 271.1689 357.8486 Q270.5439 357.2236 270.5439 356.2861 Q270.5439 355.1768 271.5127 354.4111 Q272.4971 353.6299 273.9971 353.6299 Q274.4189 353.6299 274.9346 353.8174 Q274.9346 352.0361 273.3408 352.0361 Q272.1377 352.0361 271.4814 352.6924 L270.9346 351.5986 Q271.2939 351.3018 271.9502 351.0986 Q272.6064 350.8799 273.2002 350.8799 Q274.7939 350.8799 275.5127 351.5986 Q276.2314 352.3174 276.2314 353.8955 L276.2314 356.5205 Q276.2314 357.4893 276.8096 357.8174 L276.8096 358.458 Q276.0127 358.458 275.6221 358.2393 Q275.2314 358.0049 275.0596 357.4893 ZM274.9346 354.7393 Q274.3252 354.5986 274.0752 354.5986 Q273.0908 354.5986 272.4658 355.1143 Q271.8408 355.6143 271.8408 356.3018 Q271.8408 357.4424 273.1846 357.4424 Q274.1689 357.4424 274.9346 356.5049 L274.9346 354.7393 ZM286.7588 358.333 L286.7588 353.6924 Q286.7588 351.9736 285.2588 351.9736 Q284.79 351.9736 284.3682 352.2705 Q283.9619 352.5518 283.8057 352.9111 L283.8057 358.333 L282.5088 358.333 L282.5088 353.1299 Q282.5088 352.583 282.1025 352.2861 Q281.6963 351.9736 281.0244 351.9736 Q280.6338 351.9736 280.1963 352.2705 Q279.7588 352.5674 279.5713 352.9268 L279.5713 358.333 L278.2744 358.333 L278.2744 351.0049 L279.1182 351.0049 L279.5557 351.8643 Q280.3057 350.8799 281.4307 350.8799 Q283.0088 350.8799 283.6338 351.8486 Q283.8525 351.4424 284.4463 351.1611 Q285.04 350.8799 285.665 350.8799 Q286.8057 350.8799 287.4307 351.5518 Q288.0557 352.2236 288.0557 353.4424 L288.0557 358.333 L286.7588 358.333 ZM296.0674 354.8018 L290.7861 354.8018 Q290.7861 356.083 291.4893 356.7705 Q292.1143 357.3799 293.083 357.3799 Q294.208 357.3799 294.9424 356.7236 L295.4893 357.6611 Q295.1924 357.958 294.5674 358.1768 Q293.7861 358.4736 292.833 358.4736 Q291.458 358.4736 290.4893 357.5361 Q289.4111 356.5049 289.4111 354.7549 Q289.4111 352.9424 290.5205 351.8486 Q291.5049 350.8799 292.8486 350.8799 Q294.4111 350.8799 295.3018 351.7549 Q296.1611 352.5986 296.1611 354.0049 Q296.1611 354.4424 296.0674 354.8018 ZM292.9111 351.9736 Q292.0361 351.9736 291.458 352.5361 Q290.8955 353.0674 290.8174 353.8486 L294.8799 353.8486 Q294.8799 353.0674 294.3799 352.5361 Q293.8486 351.9736 292.9111 351.9736 ZM304.2969 358.4736 L303.9531 358.4736 L301.8125 353.4893 L299.6719 358.4736 L299.3281 358.4736 L296.7188 350.9893 L298.0938 350.9893 L299.6719 355.8018 L301.6094 350.9893 L301.9531 350.9893 L303.9688 355.8018 L305.6406 350.9893 L306.9219 350.9893 L304.2969 358.4736 ZM307.4648 354.6611 Q307.4648 352.958 308.3711 351.9268 Q309.293 350.8799 310.793 350.8799 Q312.3555 350.8799 313.2148 351.8799 Q314.0898 352.8799 314.0898 354.6611 Q314.0898 356.4268 313.1992 357.458 Q312.3242 358.4736 310.793 358.4736 Q309.2148 358.4736 308.3398 357.4424 Q307.4648 356.4111 307.4648 354.6611 ZM308.8398 354.6611 Q308.8398 357.4111 310.793 357.4111 Q311.6992 357.4111 312.2148 356.6768 Q312.7305 355.9268 312.7305 354.6611 Q312.7305 351.9268 310.793 351.9268 Q309.9023 351.9268 309.3711 352.6611 Q308.8398 353.3799 308.8398 354.6611 ZM319.4463 352.2549 Q319.0244 351.9736 318.5869 351.9736 Q317.8994 351.9736 317.3838 352.6143 Q316.8682 353.2393 316.8682 354.1299 L316.8682 358.333 L315.5713 358.333 L315.5713 351.0049 L316.8682 351.0049 L316.8682 352.1768 Q317.5713 350.8799 318.9775 350.8799 Q319.3213 350.8799 319.9775 351.0049 L319.4463 352.2549 ZM325.6377 358.333 L323.3408 354.6611 L322.2002 355.833 L322.2002 358.333 L320.9033 358.333 L320.9033 348.0049 L322.2002 348.0049 L322.2002 354.4111 L325.0127 351.0049 L326.5283 351.0049 L324.1846 353.7861 L327.0439 358.333 L325.6377 358.333 Z" clip-path="url(#clipPath7)" stroke="none"/>
      <rect x="-66.0138" y="248.6875" clip-path="url(#clipPath2)" fill="rgb(245,245,245)" width="120" rx="4" ry="4" height="45" stroke="none"/>
    </g>
    <g stroke-linecap="butt" transform="matrix(1,0,0,1,199,189)" fill="rgb(95,122,173)" text-rendering="geometricPrecision" shape-rendering="geometricPrecision" stroke="rgb(95,122,173)" stroke-width="2" stroke-miterlimit="1.45">
      <rect x="-66.0138" y="248.6875" clip-path="url(#clipPath2)" fill="none" width="120" rx="4" ry="4" height="45"/>
    </g>
    <g fill="rgb(88,110,117)" text-rendering="geometricPrecision" shape-rendering="geometricPrecision" transform="matrix(1,0,0,1,199,189)" stroke="rgb(88,110,117)">
      <path d="M-13.6364 275.3457 L-14.0583 275.3457 L-16.4489 268.4395 L-18.6833 275.3457 L-19.1051 275.3457 L-22.2614 265.1895 L-20.8395 265.1895 L-18.8395 272.1895 L-16.6364 265.1895 L-16.152 265.1895 L-13.9801 272.1738 L-11.9333 265.1895 L-10.5114 265.1895 L-13.6364 275.3457 ZM-9.9889 271.5332 Q-9.9889 269.8301 -9.0827 268.7988 Q-8.1608 267.752 -6.6608 267.752 Q-5.0983 267.752 -4.2389 268.752 Q-3.3639 269.752 -3.3639 271.5332 Q-3.3639 273.2988 -4.2546 274.3301 Q-5.1296 275.3457 -6.6608 275.3457 Q-8.2389 275.3457 -9.1139 274.3145 Q-9.9889 273.2832 -9.9889 271.5332 ZM-8.6139 271.5332 Q-8.6139 274.2832 -6.6608 274.2832 Q-5.7546 274.2832 -5.2389 273.5488 Q-4.7233 272.7988 -4.7233 271.5332 Q-4.7233 268.7988 -6.6608 268.7988 Q-7.5514 268.7988 -8.0827 269.5332 Q-8.6139 270.252 -8.6139 271.5332 ZM1.9925 269.127 Q1.5706 268.8457 1.1331 268.8457 Q0.4456 268.8457 -0.07 269.4863 Q-0.5856 270.1113 -0.5856 271.002 L-0.5856 275.2051 L-1.8825 275.2051 L-1.8825 267.877 L-0.5856 267.877 L-0.5856 269.0488 Q0.1175 267.752 1.5238 267.752 Q1.8675 267.752 2.5238 267.877 L1.9925 269.127 ZM8.0902 275.2051 L8.0902 274.6582 Q7.4183 275.3301 6.1214 275.3301 Q4.7464 275.3301 3.887 274.3457 Q3.0433 273.3613 3.0433 271.7207 Q3.0433 270.0801 4.0277 268.9238 Q5.012 267.752 6.3714 267.752 Q7.512 267.752 8.0902 268.2832 L8.0902 264.877 L9.387 264.877 L9.387 275.2051 L8.0902 275.2051 ZM8.0902 269.5801 Q7.6058 268.8457 6.7464 268.8457 Q5.6995 268.8457 5.0433 269.627 Q4.4027 270.3926 4.4027 271.5957 Q4.4027 274.252 6.8089 274.252 Q7.1214 274.252 7.5433 274.0645 Q7.9808 273.8613 8.0902 273.6426 L8.0902 269.5801 Z" stroke="none" clip-path="url(#clipPath8)"/>
      <rect x="-66.0138" y="398.6875" clip-path="url(#clipPath2)" fill="rgb(245,245,245)" width="120" rx="4" ry="4" height="45" stroke="none"/>
    </g>
    <g stroke-linecap="butt" transform="matrix(1,0,0,1,199,189)" fill="rgb(95,122,173)" text-rendering="geometricPrecision" shape-rendering="geometricPrecision" stroke="rgb(95,122,173)" stroke-width="2" stroke-miterlimit="1.45">
      <rect x="-66.0138" y="398.6875" clip-path="url(#clipPath2)" fill="none" width="120" rx="4" ry="4" height="45"/>
    </g>
    <g fill="rgb(88,110,117)" text-rendering="geometricPrecision" shape-rendering="geometricPrecision" transform="matrix(1,0,0,1,199,189)" stroke="rgb(88,110,117)">
      <path d="M-22.3049 425.2051 L-22.3049 415.1895 L-20.9455 415.1895 L-20.9455 423.9707 L-16.4142 423.9707 L-16.4142 425.2051 L-22.3049 425.2051 ZM-11.1847 424.3613 Q-11.966 425.3457 -13.5754 425.3457 Q-14.4347 425.3457 -15.0754 424.7207 Q-15.7004 424.0957 -15.7004 423.1582 Q-15.7004 422.0488 -14.7316 421.2832 Q-13.7472 420.502 -12.2472 420.502 Q-11.8254 420.502 -11.3097 420.6895 Q-11.3097 418.9082 -12.9035 418.9082 Q-14.1066 418.9082 -14.7629 419.5645 L-15.3097 418.4707 Q-14.9504 418.1738 -14.2941 417.9707 Q-13.6379 417.752 -13.0441 417.752 Q-11.4504 417.752 -10.7316 418.4707 Q-10.0129 419.1895 -10.0129 420.7676 L-10.0129 423.3926 Q-10.0129 424.3613 -9.4347 424.6895 L-9.4347 425.3301 Q-10.2316 425.3301 -10.6222 425.1113 Q-11.0129 424.877 -11.1847 424.3613 ZM-11.3097 421.6113 Q-11.9191 421.4707 -12.1691 421.4707 Q-13.1535 421.4707 -13.7785 421.9863 Q-14.4035 422.4863 -14.4035 423.1738 Q-14.4035 424.3145 -13.0597 424.3145 Q-12.0754 424.3145 -11.3097 423.377 L-11.3097 421.6113 ZM-7.5011 418.9082 L-8.3449 418.9082 L-8.3449 417.877 L-7.5011 417.877 L-7.5011 416.3457 L-6.2043 415.8457 L-6.2043 417.877 L-4.1886 417.877 L-4.1886 418.9082 L-6.2043 418.9082 L-6.2043 422.5488 Q-6.2043 423.4707 -5.8918 423.8613 Q-5.5793 424.252 -4.8918 424.252 Q-4.3918 424.252 -3.8605 424.002 L-3.673 425.1426 Q-4.4699 425.3457 -5.4386 425.3457 Q-6.3136 425.3457 -6.9074 424.7051 Q-7.5011 424.0488 -7.5011 423.0645 L-7.5011 418.9082 ZM3.7528 421.6738 L-1.5285 421.6738 Q-1.5285 422.9551 -0.8254 423.6426 Q-0.2004 424.252 0.7684 424.252 Q1.8934 424.252 2.6278 423.5957 L3.1746 424.5332 Q2.8778 424.8301 2.2528 425.0488 Q1.4715 425.3457 0.5184 425.3457 Q-0.8566 425.3457 -1.8254 424.4082 Q-2.9035 423.377 -2.9035 421.627 Q-2.9035 419.8145 -1.7941 418.7207 Q-0.8097 417.752 0.534 417.752 Q2.0965 417.752 2.9871 418.627 Q3.8465 419.4707 3.8465 420.877 Q3.8465 421.3145 3.7528 421.6738 ZM0.5965 418.8457 Q-0.2785 418.8457 -0.8566 419.4082 Q-1.4191 419.9395 -1.4972 420.7207 L2.5653 420.7207 Q2.5653 419.9395 2.0653 419.4082 Q1.534 418.8457 0.5965 418.8457 ZM9.6698 425.2051 L7.6854 422.5332 L5.8885 425.2051 L4.3729 425.2051 L7.0291 421.4551 L4.5916 417.877 L6.0604 417.877 L7.701 420.3926 L9.5448 417.877 L10.9666 417.877 L8.3104 421.4551 L11.2323 425.2051 L9.6698 425.2051 Z" stroke="none" clip-path="url(#clipPath9)"/>
      <rect x="-66.0138" y="323.6875" clip-path="url(#clipPath2)" fill="rgb(245,245,245)" width="120" rx="4" ry="4" height="45" stroke="none"/>
    </g>
    <g stroke-linecap="butt" transform="matrix(1,0,0,1,199,189)" fill="rgb(95,122,173)" text-rendering="geometricPrecision" shape-rendering="geometricPrecision" stroke="rgb(95,122,173)" stroke-width="2" stroke-miterlimit="1.45">
      <rect x="-66.0138" y="323.6875" clip-path="url(#clipPath2)" fill="none" width="120" rx="4" ry="4" height="45"/>
    </g>
    <g fill="rgb(88,110,117)" text-rendering="geometricPrecision" shape-rendering="geometricPrecision" transform="matrix(1,0,0,1,199,189)" stroke="rgb(88,110,117)">
      <path d="M-39.9426 350.2051 L-41.9582 350.2051 L-41.9582 340.1895 Q-40.0363 340.127 -39.4894 340.127 Q-37.3957 340.127 -36.1769 341.4082 Q-34.9426 342.6738 -34.9426 344.7832 Q-34.9426 350.2051 -39.9426 350.2051 ZM-40.5988 341.4238 L-40.5988 348.9082 Q-40.1457 348.9707 -39.4582 348.9707 Q-38.0207 348.9707 -37.2082 347.8926 Q-36.3801 346.8145 -36.3801 344.9082 Q-36.3801 341.3457 -39.5832 341.3457 Q-39.7707 341.3457 -40.5988 341.4238 ZM-32.1379 340.1113 Q-31.8097 340.1113 -31.5754 340.3457 Q-31.341 340.5801 -31.341 340.9082 Q-31.341 341.252 -31.5754 341.4863 Q-31.8097 341.7207 -32.1379 341.7207 Q-32.466 341.7207 -32.7004 341.4863 Q-32.9347 341.252 -32.9347 340.9082 Q-32.9347 340.5801 -32.716 340.3457 Q-32.4816 340.1113 -32.1379 340.1113 ZM-32.8566 350.2051 L-32.8566 343.9707 L-33.8566 343.9707 L-33.8566 342.877 L-31.5597 342.877 L-31.5597 350.2051 L-32.8566 350.2051 ZM-29.0207 343.9082 L-29.8644 343.9082 L-29.8644 342.877 L-29.0207 342.877 L-29.0207 341.3457 L-27.7238 340.8457 L-27.7238 342.877 L-25.7082 342.877 L-25.7082 343.9082 L-27.7238 343.9082 L-27.7238 347.5488 Q-27.7238 348.4707 -27.4113 348.8613 Q-27.0988 349.252 -26.4113 349.252 Q-25.9113 349.252 -25.3801 349.002 L-25.1926 350.1426 Q-25.9894 350.3457 -26.9582 350.3457 Q-27.8332 350.3457 -28.4269 349.7051 Q-29.0207 349.0488 -29.0207 348.0645 L-29.0207 343.9082 ZM-19.798 349.3613 Q-20.5793 350.3457 -22.1886 350.3457 Q-23.048 350.3457 -23.6886 349.7207 Q-24.3136 349.0957 -24.3136 348.1582 Q-24.3136 347.0488 -23.3449 346.2832 Q-22.3605 345.502 -20.8605 345.502 Q-20.4386 345.502 -19.923 345.6895 Q-19.923 343.9082 -21.5168 343.9082 Q-22.7199 343.9082 -23.3761 344.5645 L-23.923 343.4707 Q-23.5636 343.1738 -22.9074 342.9707 Q-22.2511 342.752 -21.6574 342.752 Q-20.0636 342.752 -19.3449 343.4707 Q-18.6261 344.1895 -18.6261 345.7676 L-18.6261 348.3926 Q-18.6261 349.3613 -18.048 349.6895 L-18.048 350.3301 Q-18.8449 350.3301 -19.2355 350.1113 Q-19.6261 349.877 -19.798 349.3613 ZM-19.923 346.6113 Q-20.5324 346.4707 -20.7824 346.4707 Q-21.7668 346.4707 -22.3918 346.9863 Q-23.0168 347.4863 -23.0168 348.1738 Q-23.0168 349.3145 -21.673 349.3145 Q-20.6886 349.3145 -19.923 348.377 L-19.923 346.6113 ZM-12.256 350.2051 L-12.256 340.1895 L-10.8967 340.1895 L-10.8967 348.9707 L-6.3654 348.9707 L-6.3654 350.2051 L-12.256 350.2051 ZM-1.5265 341.4238 L-1.5265 350.2051 L-2.8859 350.2051 L-2.8859 341.4238 L-6.0734 341.4238 L-6.0734 340.1895 L1.8016 340.1895 L1.8016 341.4238 L-1.5265 341.4238 ZM12.3973 350.2051 L9.9129 346.1895 L7.616 350.2051 L6.241 350.2051 L9.1942 345.002 L6.4754 340.1895 L7.8192 340.1895 L9.9598 343.9707 L12.3192 340.1895 L13.6942 340.1895 L10.5848 345.0332 L13.8504 350.2051 L12.3973 350.2051 ZM22.5028 350.2051 L21.3153 343.7676 L19.1278 350.3457 L18.784 350.3457 L16.534 343.7676 L15.3778 350.2051 L14.0809 350.2051 L15.9559 340.1895 L16.5653 340.1895 L18.9559 347.502 L21.159 340.1895 L21.7684 340.1895 L23.7996 350.2051 L22.5028 350.2051 ZM24.9041 350.2051 L24.9041 340.1895 L26.2635 340.1895 L26.2635 348.9707 L30.7948 348.9707 L30.7948 350.2051 L24.9041 350.2051 Z" stroke="none" clip-path="url(#clipPath10)"/>
      <rect x="232.125" y="101.4173" clip-path="url(#clipPath2)" fill="rgb(245,245,245)" width="120" rx="4" ry="4" height="45" stroke="none"/>
    </g>
    <g stroke-linecap="butt" transform="matrix(1,0,0,1,199,189)" fill="rgb(95,122,173)" text-rendering="geometricPrecision" shape-rendering="geometricPrecision" stroke="rgb(95,122,173)" stroke-width="2" stroke-miterlimit="1.45">
      <rect x="232.125" y="101.4173" clip-path="url(#clipPath2)" fill="none" width="120" rx="4" ry="4" height="45"/>
      <path stroke-miterlimit="10" d="M250.5371 127.9348 L248.0527 123.9192 L245.7559 127.9348 L244.3809 127.9348 L247.334 122.7317 L244.6152 117.9192 L245.959 117.9192 L248.0996 121.7005 L250.459 117.9192 L251.834 117.9192 L248.7246 122.763 L251.9902 127.9348 L250.5371 127.9348 ZM260.6426 127.9348 L259.4551 121.4973 L257.2676 128.0755 L256.9238 128.0755 L254.6738 121.4973 L253.5176 127.9348 L252.2207 127.9348 L254.0957 117.9192 L254.7051 117.9192 L257.0957 125.2317 L259.2988 117.9192 L259.9082 117.9192 L261.9395 127.9348 L260.6426 127.9348 ZM263.0439 127.9348 L263.0439 117.9192 L264.4033 117.9192 L264.4033 126.7005 L268.9346 126.7005 L268.9346 127.9348 L263.0439 127.9348 ZM276.3662 127.9348 L274.3506 127.9348 L274.3506 117.9192 Q276.2725 117.8567 276.8193 117.8567 Q278.9131 117.8567 280.1318 119.138 Q281.3662 120.4036 281.3662 122.513 Q281.3662 127.9348 276.3662 127.9348 ZM275.71 119.1536 L275.71 126.638 Q276.1631 126.7005 276.8506 126.7005 Q278.2881 126.7005 279.1006 125.6223 Q279.9287 124.5442 279.9287 122.638 Q279.9287 119.0755 276.7256 119.0755 Q276.5381 119.0755 275.71 119.1536 ZM286.9678 127.0911 Q286.1865 128.0755 284.5771 128.0755 Q283.7178 128.0755 283.0771 127.4505 Q282.4521 126.8255 282.4521 125.888 Q282.4521 124.7786 283.4209 124.013 Q284.4053 123.2317 285.9053 123.2317 Q286.3271 123.2317 286.8428 123.4192 Q286.8428 121.638 285.249 121.638 Q284.0459 121.638 283.3896 122.2942 L282.8428 121.2005 Q283.2021 120.9036 283.8584 120.7005 Q284.5146 120.4817 285.1084 120.4817 Q286.7021 120.4817 287.4209 121.2005 Q288.1396 121.9192 288.1396 123.4973 L288.1396 126.1223 Q288.1396 127.0911 288.7178 127.4192 L288.7178 128.0598 Q287.9209 128.0598 287.5303 127.8411 Q287.1396 127.6067 286.9678 127.0911 ZM286.8428 124.3411 Q286.2334 124.2005 285.9834 124.2005 Q284.999 124.2005 284.374 124.7161 Q283.749 125.2161 283.749 125.9036 Q283.749 127.0442 285.0928 127.0442 Q286.0771 127.0442 286.8428 126.1067 L286.8428 124.3411 ZM290.6514 121.638 L289.8076 121.638 L289.8076 120.6067 L290.6514 120.6067 L290.6514 119.0755 L291.9482 118.5755 L291.9482 120.6067 L293.9639 120.6067 L293.9639 121.638 L291.9482 121.638 L291.9482 125.2786 Q291.9482 126.2005 292.2607 126.5911 Q292.5732 126.9817 293.2607 126.9817 Q293.7607 126.9817 294.292 126.7317 L294.4795 127.8723 Q293.6826 128.0755 292.7139 128.0755 Q291.8389 128.0755 291.2451 127.4348 Q290.6514 126.7786 290.6514 125.7942 L290.6514 121.638 ZM301.9053 124.4036 L296.624 124.4036 Q296.624 125.6848 297.3271 126.3723 Q297.9521 126.9817 298.9209 126.9817 Q300.0459 126.9817 300.7803 126.3255 L301.3271 127.263 Q301.0303 127.5598 300.4053 127.7786 Q299.624 128.0755 298.6709 128.0755 Q297.2959 128.0755 296.3271 127.138 Q295.249 126.1067 295.249 124.3567 Q295.249 122.5442 296.3584 121.4505 Q297.3428 120.4817 298.6865 120.4817 Q300.249 120.4817 301.1396 121.3567 Q301.999 122.2005 301.999 123.6067 Q301.999 124.0442 301.9053 124.4036 ZM298.749 121.5755 Q297.874 121.5755 297.2959 122.138 Q296.7334 122.6692 296.6553 123.4505 L300.7178 123.4505 Q300.7178 122.6692 300.2178 122.138 Q299.6865 121.5755 298.749 121.5755 ZM307.8691 127.9348 L307.8691 123.6692 Q307.8691 122.513 307.5098 122.0442 Q307.166 121.5755 306.3379 121.5755 Q305.9004 121.5755 305.416 121.8411 Q304.9316 122.1067 304.666 122.4973 L304.666 127.9348 L303.3691 127.9348 L303.3691 120.6067 L304.2598 120.6067 L304.666 121.5598 Q305.3066 120.4817 306.7754 120.4817 Q309.1816 120.4817 309.1816 123.4036 L309.1816 127.9348 L307.8691 127.9348 ZM312.1279 127.4036 L311.6748 128.0755 L311.0186 128.0755 L311.0186 117.6067 L312.3154 117.6067 L312.3154 121.1536 Q312.5029 120.9036 313.0029 120.7005 Q313.5186 120.4817 314.0186 120.4817 Q315.5186 120.4817 316.4404 121.5286 Q317.3779 122.5598 317.3779 124.138 Q317.3779 125.9661 316.4404 127.0286 Q315.5186 128.0755 313.9092 128.0755 Q313.3936 128.0755 312.8936 127.888 Q312.3936 127.6848 312.1279 127.4036 ZM312.3154 122.138 L312.3154 126.3723 Q312.3154 126.4817 312.7998 126.7317 Q313.2842 126.9817 313.5498 126.9817 Q314.8623 126.9817 315.4404 126.3411 Q316.0186 125.7005 316.0186 124.2161 Q316.0186 122.9661 315.3467 122.2786 Q314.6748 121.5755 313.5498 121.5755 Q313.2998 121.5755 312.8779 121.7786 Q312.4561 121.9817 312.3154 122.138 ZM322.959 127.0911 Q322.1777 128.0755 320.5684 128.0755 Q319.709 128.0755 319.0684 127.4505 Q318.4434 126.8255 318.4434 125.888 Q318.4434 124.7786 319.4121 124.013 Q320.3965 123.2317 321.8965 123.2317 Q322.3184 123.2317 322.834 123.4192 Q322.834 121.638 321.2402 121.638 Q320.0371 121.638 319.3809 122.2942 L318.834 121.2005 Q319.1934 120.9036 319.8496 120.7005 Q320.5059 120.4817 321.0996 120.4817 Q322.6934 120.4817 323.4121 121.2005 Q324.1309 121.9192 324.1309 123.4973 L324.1309 126.1223 Q324.1309 127.0911 324.709 127.4192 L324.709 128.0598 Q323.9121 128.0598 323.5215 127.8411 Q323.1309 127.6067 322.959 127.0911 ZM322.834 124.3411 Q322.2246 124.2005 321.9746 124.2005 Q320.9902 124.2005 320.3652 124.7161 Q319.7402 125.2161 319.7402 125.9036 Q319.7402 127.0442 321.084 127.0442 Q322.0684 127.0442 322.834 126.1067 L322.834 124.3411 ZM330.6738 127.9348 L330.6738 123.6692 Q330.6738 122.513 330.3145 122.0442 Q329.9707 121.5755 329.1426 121.5755 Q328.7051 121.5755 328.2207 121.8411 Q327.7363 122.1067 327.4707 122.4973 L327.4707 127.9348 L326.1738 127.9348 L326.1738 120.6067 L327.0645 120.6067 L327.4707 121.5598 Q328.1113 120.4817 329.5801 120.4817 Q331.9863 120.4817 331.9863 123.4036 L331.9863 127.9348 L330.6738 127.9348 ZM338.5576 127.9348 L336.2607 124.263 L335.1201 125.4348 L335.1201 127.9348 L333.8232 127.9348 L333.8232 117.6067 L335.1201 117.6067 L335.1201 124.013 L337.9326 120.6067 L339.4482 120.6067 L337.1045 123.388 L339.9639 127.9348 L338.5576 127.9348 Z" stroke-width="1" clip-path="url(#clipPath11)" stroke-linecap="square" stroke="none"/>
    </g>
    <g fill="rgb(245,245,245)" text-rendering="geometricPrecision" shape-rendering="geometricPrecision" transform="matrix(1,0,0,1,199,189)" stroke="rgb(245,245,245)">
      <rect x="232.125" y="-80.6875" clip-path="url(#clipPath2)" width="120" rx="4" ry="4" height="45" stroke="none"/>
    </g>
    <g stroke-linecap="butt" transform="matrix(1,0,0,1,199,189)" fill="rgb(95,122,173)" text-rendering="geometricPrecision" shape-rendering="geometricPrecision" stroke="rgb(95,122,173)" stroke-width="2" stroke-miterlimit="1.45">
      <rect x="232.125" y="-80.6875" clip-path="url(#clipPath2)" fill="none" width="120" rx="4" ry="4" height="45"/>
    </g>
    <g fill="rgb(236,151,69)" text-rendering="geometricPrecision" shape-rendering="geometricPrecision" transform="matrix(1,0,0,1,199,189)" stroke="rgb(236,151,69)">
      <path d="M246.085 -59.2637 Q246.085 -61.4355 247.1787 -62.8887 Q248.2725 -64.3574 250.1162 -64.3574 Q252.21 -64.3574 253.3193 -63.0137 Q254.4287 -61.6699 254.4287 -59.2637 Q254.4287 -56.7949 253.3037 -55.3887 Q252.1943 -53.998 250.1162 -53.998 Q248.2256 -53.998 247.1475 -55.4668 Q246.085 -56.9512 246.085 -59.2637 ZM247.5225 -59.2637 Q247.5225 -57.5449 248.1943 -56.3887 Q248.8818 -55.2324 250.1162 -55.2324 Q251.5225 -55.2324 252.2568 -56.2793 Q252.9912 -57.3418 252.9912 -59.2637 Q252.9912 -63.1387 250.1162 -63.1387 Q248.8506 -63.1387 248.1787 -62.0918 Q247.5225 -61.0605 247.5225 -59.2637 ZM260.3936 -54.1699 L260.3936 -58.4355 Q260.3936 -59.5918 260.0342 -60.0605 Q259.6904 -60.5293 258.8623 -60.5293 Q258.4248 -60.5293 257.9404 -60.2637 Q257.4561 -59.998 257.1904 -59.6074 L257.1904 -54.1699 L255.8936 -54.1699 L255.8936 -61.498 L256.7842 -61.498 L257.1904 -60.5449 Q257.8311 -61.623 259.2998 -61.623 Q261.7061 -61.623 261.7061 -58.7012 L261.7061 -54.1699 L260.3936 -54.1699 ZM263.6523 -56.248 L263.6523 -64.498 L264.9492 -64.498 L264.9492 -56.4668 Q264.9492 -55.873 265.2773 -55.5293 Q265.6211 -55.2012 266.168 -55.2012 L266.168 -54.0293 Q263.6523 -54.0293 263.6523 -56.248 ZM269.0156 -64.2637 Q269.3438 -64.2637 269.5781 -64.0293 Q269.8125 -63.7949 269.8125 -63.4668 Q269.8125 -63.123 269.5781 -62.8887 Q269.3438 -62.6543 269.0156 -62.6543 Q268.6875 -62.6543 268.4531 -62.8887 Q268.2188 -63.123 268.2188 -63.4668 Q268.2188 -63.7949 268.4375 -64.0293 Q268.6719 -64.2637 269.0156 -64.2637 ZM268.2969 -54.1699 L268.2969 -60.4043 L267.2969 -60.4043 L267.2969 -61.498 L269.5938 -61.498 L269.5938 -54.1699 L268.2969 -54.1699 ZM276.1641 -54.1699 L276.1641 -58.4355 Q276.1641 -59.5918 275.8047 -60.0605 Q275.4609 -60.5293 274.6328 -60.5293 Q274.1953 -60.5293 273.7109 -60.2637 Q273.2266 -59.998 272.9609 -59.6074 L272.9609 -54.1699 L271.6641 -54.1699 L271.6641 -61.498 L272.5547 -61.498 L272.9609 -60.5449 Q273.6016 -61.623 275.0703 -61.623 Q277.4766 -61.623 277.4766 -58.7012 L277.4766 -54.1699 L276.1641 -54.1699 ZM285.4854 -57.7012 L280.2041 -57.7012 Q280.2041 -56.4199 280.9072 -55.7324 Q281.5322 -55.123 282.501 -55.123 Q283.626 -55.123 284.3604 -55.7793 L284.9072 -54.8418 Q284.6104 -54.5449 283.9854 -54.3262 Q283.2041 -54.0293 282.251 -54.0293 Q280.876 -54.0293 279.9072 -54.9668 Q278.8291 -55.998 278.8291 -57.748 Q278.8291 -59.5605 279.9385 -60.6543 Q280.9229 -61.623 282.2666 -61.623 Q283.8291 -61.623 284.7197 -60.748 Q285.5791 -59.9043 285.5791 -58.498 Q285.5791 -58.0605 285.4854 -57.7012 ZM282.3291 -60.5293 Q281.4541 -60.5293 280.876 -59.9668 Q280.3135 -59.4355 280.2354 -58.6543 L284.2979 -58.6543 Q284.2979 -59.4355 283.7979 -59.9668 Q283.2666 -60.5293 282.3291 -60.5293 ZM297.667 -63.8105 L297.1982 -62.6543 Q296.542 -63.123 295.1357 -63.123 Q293.8232 -63.123 293.0264 -61.9824 Q292.2295 -60.8574 292.2295 -59.0605 Q292.2295 -57.3574 293.042 -56.2949 Q293.8545 -55.2324 295.1514 -55.2324 Q296.5576 -55.2324 297.3232 -56.2324 L298.0732 -55.1855 Q296.8857 -53.998 295.0107 -53.998 Q293.042 -53.998 291.917 -55.4043 Q290.792 -56.8262 290.792 -59.1543 Q290.792 -61.3887 291.9951 -62.873 Q293.1982 -64.3574 295.1045 -64.3574 Q296.7451 -64.3574 297.667 -63.8105 ZM303.6816 -55.0137 Q302.9004 -54.0293 301.291 -54.0293 Q300.4316 -54.0293 299.791 -54.6543 Q299.166 -55.2793 299.166 -56.2168 Q299.166 -57.3262 300.1348 -58.0918 Q301.1191 -58.873 302.6191 -58.873 Q303.041 -58.873 303.5566 -58.6855 Q303.5566 -60.4668 301.9629 -60.4668 Q300.7598 -60.4668 300.1035 -59.8105 L299.5566 -60.9043 Q299.916 -61.2012 300.5723 -61.4043 Q301.2285 -61.623 301.8223 -61.623 Q303.416 -61.623 304.1348 -60.9043 Q304.8535 -60.1855 304.8535 -58.6074 L304.8535 -55.9824 Q304.8535 -55.0137 305.4316 -54.6855 L305.4316 -54.0449 Q304.6348 -54.0449 304.2441 -54.2637 Q303.8535 -54.498 303.6816 -55.0137 ZM303.5566 -57.7637 Q302.9473 -57.9043 302.6973 -57.9043 Q301.7129 -57.9043 301.0879 -57.3887 Q300.4629 -56.8887 300.4629 -56.2012 Q300.4629 -55.0605 301.8066 -55.0605 Q302.791 -55.0605 303.5566 -55.998 L303.5566 -57.7637 ZM315.3809 -54.1699 L315.3809 -58.8105 Q315.3809 -60.5293 313.8809 -60.5293 Q313.4121 -60.5293 312.9902 -60.2324 Q312.584 -59.9512 312.4277 -59.5918 L312.4277 -54.1699 L311.1309 -54.1699 L311.1309 -59.373 Q311.1309 -59.9199 310.7246 -60.2168 Q310.3184 -60.5293 309.6465 -60.5293 Q309.2559 -60.5293 308.8184 -60.2324 Q308.3809 -59.9355 308.1934 -59.5762 L308.1934 -54.1699 L306.8965 -54.1699 L306.8965 -61.498 L307.7402 -61.498 L308.1777 -60.6387 Q308.9277 -61.623 310.0527 -61.623 Q311.6309 -61.623 312.2559 -60.6543 Q312.4746 -61.0605 313.0684 -61.3418 Q313.6621 -61.623 314.2871 -61.623 Q315.4277 -61.623 316.0527 -60.9512 Q316.6777 -60.2793 316.6777 -59.0605 L316.6777 -54.1699 L315.3809 -54.1699 ZM319.8145 -54.5762 L319.8145 -51.2949 L318.5176 -51.2949 L318.5176 -61.498 L319.8145 -61.498 L319.8145 -60.8887 Q320.5488 -61.623 321.5957 -61.623 Q323.1582 -61.623 324.0176 -60.6543 Q324.8926 -59.6855 324.8926 -57.8105 Q324.8926 -56.1387 324.0176 -55.0762 Q323.1426 -54.0293 321.4863 -54.0293 Q321.0332 -54.0293 320.502 -54.1855 Q319.9707 -54.3574 319.8145 -54.5762 ZM319.8145 -59.9199 L319.8145 -55.6543 Q319.9395 -55.4668 320.3301 -55.2949 Q320.7363 -55.123 321.1113 -55.123 Q323.5332 -55.123 323.5332 -57.8574 Q323.5332 -59.248 322.9551 -59.8887 Q322.377 -60.5293 321.1113 -60.5293 Q320.8457 -60.5293 320.4395 -60.3418 Q320.0488 -60.1543 319.8145 -59.9199 ZM327.5518 -61.498 L327.5518 -56.8262 Q327.5518 -55.123 329.0205 -55.123 Q329.6611 -55.123 330.1924 -55.498 Q330.7236 -55.873 330.8955 -56.3574 L330.8955 -61.498 L332.1924 -61.498 L332.1924 -54.1699 L330.8955 -54.1699 L330.8955 -55.1855 Q330.6768 -54.748 330.0205 -54.3887 Q329.3643 -54.0293 328.7393 -54.0293 Q327.5361 -54.0293 326.8955 -54.7168 Q326.2549 -55.4199 326.2549 -56.6855 L326.2549 -61.498 L327.5518 -61.498 ZM333.4824 -54.6074 L333.9512 -55.8418 Q335.0293 -55.123 335.7012 -55.123 Q336.9043 -55.123 336.9043 -56.1387 Q336.9043 -56.8574 335.7324 -57.3887 Q334.8418 -57.7949 334.5293 -57.998 Q334.2168 -58.2168 333.9824 -58.4824 Q333.7637 -58.7637 333.6543 -59.0605 Q333.5449 -59.373 333.5449 -59.7168 Q333.5449 -60.623 334.2012 -61.123 Q334.8574 -61.623 335.9043 -61.623 Q336.7168 -61.623 337.9199 -61.123 L337.5605 -59.9199 Q336.7793 -60.5293 335.998 -60.5293 Q335.5449 -60.5293 335.2168 -60.3105 Q334.9043 -60.0918 334.9043 -59.7637 Q334.9043 -59.0605 335.7012 -58.7012 L336.6387 -58.2793 Q337.4824 -57.8887 337.873 -57.3887 Q338.2637 -56.8887 338.2637 -56.1387 Q338.2637 -55.1543 337.5762 -54.5918 Q336.8887 -54.0293 335.6699 -54.0293 Q334.5137 -54.0293 333.4824 -54.6074 Z" stroke="none" clip-path="url(#clipPath12)"/>
      <rect x="-66.0138" y="-80.6875" clip-path="url(#clipPath2)" fill="rgb(245,245,245)" width="120" rx="4" ry="4" height="45" stroke="none"/>
    </g>
    <g stroke-linecap="butt" transform="matrix(1,0,0,1,199,189)" fill="rgb(95,122,173)" text-rendering="geometricPrecision" shape-rendering="geometricPrecision" stroke="rgb(95,122,173)" stroke-width="2" stroke-miterlimit="1.45">
      <rect x="-66.0138" y="-80.6875" clip-path="url(#clipPath2)" fill="none" width="120" rx="4" ry="4" height="45"/>
      <path stroke-miterlimit="10" d="M-23.3346 -54.1699 L-25.3503 -54.1699 L-25.3503 -64.1855 Q-23.4284 -64.248 -22.8815 -64.248 Q-20.7878 -64.248 -19.569 -62.9668 Q-18.3346 -61.7012 -18.3346 -59.5918 Q-18.3346 -54.1699 -23.3346 -54.1699 ZM-23.9909 -62.9512 L-23.9909 -55.4668 Q-23.5378 -55.4043 -22.8503 -55.4043 Q-21.4128 -55.4043 -20.6003 -56.4824 Q-19.7721 -57.5605 -19.7721 -59.4668 Q-19.7721 -63.0293 -22.9753 -63.0293 Q-23.1628 -63.0293 -23.9909 -62.9512 ZM-15.405 -62.9512 L-15.405 -60.1699 L-12.0925 -60.1699 L-12.0925 -59.0137 L-15.405 -59.0137 L-15.405 -55.4043 L-10.8581 -55.4043 L-10.8581 -54.1699 L-16.7643 -54.1699 L-16.7643 -64.1855 L-10.7956 -64.1855 L-10.7956 -62.9512 L-15.405 -62.9512 ZM-1.7341 -54.1699 L-2.9216 -60.6074 L-5.1091 -54.0293 L-5.4528 -54.0293 L-7.7028 -60.6074 L-8.8591 -54.1699 L-10.1559 -54.1699 L-8.2809 -64.1855 L-7.6716 -64.1855 L-5.2809 -56.873 L-3.0778 -64.1855 L-2.4684 -64.1855 L-0.4372 -54.1699 L-1.7341 -54.1699 ZM0.2142 -54.623 L0.7142 -55.8887 Q1.0892 -55.6074 1.6517 -55.4199 Q2.2298 -55.2324 2.6829 -55.2324 Q3.4798 -55.2324 3.9642 -55.6699 Q4.4486 -56.1074 4.4486 -56.7793 Q4.4486 -57.2949 4.1829 -57.7168 Q3.9173 -58.1543 2.8236 -58.6699 L2.0267 -59.0449 Q0.9954 -59.5293 0.5892 -60.1855 Q0.1829 -60.8418 0.1829 -61.7637 Q0.1829 -62.873 0.9798 -63.6074 Q1.7767 -64.3574 3.0111 -64.3574 Q4.6673 -64.3574 5.3236 -63.8105 L4.9173 -62.623 Q4.6517 -62.8262 4.0892 -63.0137 Q3.5267 -63.2012 3.0423 -63.2012 Q2.3548 -63.2012 1.9486 -62.7949 Q1.5579 -62.4043 1.5579 -61.7793 Q1.5579 -61.3887 1.6986 -61.0762 Q1.8392 -60.7637 2.0892 -60.5449 Q2.3548 -60.3418 3.1361 -59.9668 L3.9642 -59.5762 Q4.9954 -59.0918 5.4017 -58.4043 Q5.8236 -57.7324 5.8236 -56.7012 Q5.8236 -55.5762 4.9173 -54.7793 Q4.0111 -53.998 2.4798 -53.998 Q1.1517 -53.998 0.2142 -54.623 ZM11.057 -58.6543 L11.057 -54.1699 L9.682 -54.1699 L9.682 -58.6543 L6.4632 -64.1855 L7.8695 -64.1855 L10.3695 -59.8105 L12.8538 -64.1855 L14.2601 -64.1855 L11.057 -58.6543 Z" stroke-width="1" clip-path="url(#clipPath13)" stroke-linecap="square" stroke="none"/>
    </g>
    <g fill="rgb(245,245,245)" text-rendering="geometricPrecision" shape-rendering="geometricPrecision" transform="matrix(1,0,0,1,199,189)" stroke="rgb(245,245,245)">
      <rect x="618.7031" y="186.8113" clip-path="url(#clipPath2)" width="120" rx="4" ry="4" height="45" stroke="none"/>
    </g>
    <g stroke-linecap="butt" transform="matrix(1,0,0,1,199,189)" fill="rgb(95,122,173)" text-rendering="geometricPrecision" shape-rendering="geometricPrecision" stroke="rgb(95,122,173)" stroke-width="2" stroke-miterlimit="1.45">
      <rect x="618.7031" y="186.8113" clip-path="url(#clipPath2)" fill="none" width="120" rx="4" ry="4" height="45"/>
    </g>
    <g fill="rgb(88,110,117)" text-rendering="geometricPrecision" shape-rendering="geometricPrecision" transform="matrix(1,0,0,1,199,189)" stroke="rgb(88,110,117)">
      <path d="M669.2231 209.4695 L669.2231 213.3289 L667.8638 213.3289 L667.8638 203.3133 Q669.4106 203.2508 669.7388 203.2508 Q674.0981 203.2508 674.0981 206.157 Q674.0981 209.5476 670.2388 209.5476 Q670.0044 209.5476 669.2231 209.4695 ZM669.2231 204.5476 L669.2231 208.2351 Q670.0981 208.3133 670.145 208.3133 Q672.6919 208.3133 672.6919 206.3133 Q672.6919 204.4695 669.9731 204.4695 Q669.6919 204.4695 669.2231 204.5476 ZM677.686 213.3289 L675.6704 213.3289 L675.6704 203.3133 Q677.5923 203.2508 678.1392 203.2508 Q680.2329 203.2508 681.4517 204.532 Q682.686 205.7976 682.686 207.907 Q682.686 213.3289 677.686 213.3289 ZM677.0298 204.5476 L677.0298 212.032 Q677.4829 212.0945 678.1704 212.0945 Q679.6079 212.0945 680.4204 211.0164 Q681.2485 209.9383 681.2485 208.032 Q681.2485 204.4695 678.0454 204.4695 Q677.8579 204.4695 677.0298 204.5476 ZM685.6157 204.5476 L685.6157 207.3289 L689.1313 207.3289 L689.1313 208.4851 L685.6157 208.4851 L685.6157 213.3289 L684.2563 213.3289 L684.2563 203.3133 L690.4438 203.3133 L690.4438 204.5476 L685.6157 204.5476 Z" stroke="none" clip-path="url(#clipPath14)"/>
      <rect x="618.7031" y="242.1244" clip-path="url(#clipPath2)" fill="rgb(245,245,245)" width="120" rx="4" ry="4" height="45" stroke="none"/>
    </g>
    <g stroke-linecap="butt" transform="matrix(1,0,0,1,199,189)" fill="rgb(95,122,173)" text-rendering="geometricPrecision" shape-rendering="geometricPrecision" stroke="rgb(95,122,173)" stroke-width="2" stroke-miterlimit="1.45">
      <rect x="618.7031" y="242.1244" clip-path="url(#clipPath2)" fill="none" width="120" rx="4" ry="4" height="45"/>
    </g>
    <g fill="rgb(88,110,117)" text-rendering="geometricPrecision" shape-rendering="geometricPrecision" transform="matrix(1,0,0,1,199,189)" stroke="rgb(88,110,117)">
      <path d="M668.314 268.642 L668.314 263.7982 L663.939 263.7982 L663.939 268.642 L662.5796 268.642 L662.5796 258.6263 L663.939 258.6263 L663.939 262.642 L668.314 262.642 L668.314 258.6263 L669.689 258.6263 L669.689 268.642 L668.314 268.642 ZM675.3804 259.8607 L675.3804 268.642 L674.021 268.642 L674.021 259.8607 L670.8335 259.8607 L670.8335 258.6263 L678.7085 258.6263 L678.7085 259.8607 L675.3804 259.8607 ZM687.3989 268.642 L686.2114 262.2045 L684.0239 268.7826 L683.6802 268.7826 L681.4302 262.2045 L680.2739 268.642 L678.9771 268.642 L680.8521 258.6263 L681.4614 258.6263 L683.8521 265.9388 L686.0552 258.6263 L686.6646 258.6263 L688.6958 268.642 L687.3989 268.642 ZM689.8003 268.642 L689.8003 258.6263 L691.1597 258.6263 L691.1597 267.4076 L695.6909 267.4076 L695.6909 268.642 L689.8003 268.642 Z" stroke="none" clip-path="url(#clipPath15)"/>
      <rect x="618.7031" y="297.4375" clip-path="url(#clipPath2)" fill="rgb(245,245,245)" width="120" rx="4" ry="4" height="45" stroke="none"/>
    </g>
    <g stroke-linecap="butt" transform="matrix(1,0,0,1,199,189)" fill="rgb(95,122,173)" text-rendering="geometricPrecision" shape-rendering="geometricPrecision" stroke="rgb(95,122,173)" stroke-width="2" stroke-miterlimit="1.45">
      <rect x="618.7031" y="297.4375" clip-path="url(#clipPath2)" fill="none" width="120" rx="4" ry="4" height="45"/>
    </g>
    <g fill="rgb(88,110,117)" text-rendering="geometricPrecision" shape-rendering="geometricPrecision" transform="matrix(1,0,0,1,199,189)" stroke="rgb(88,110,117)">
      <path d="M670.3511 320.4238 L665.0698 320.4238 Q665.0698 321.7051 665.7729 322.3926 Q666.3979 323.002 667.3667 323.002 Q668.4917 323.002 669.2261 322.3457 L669.7729 323.2832 Q669.4761 323.5801 668.8511 323.7988 Q668.0698 324.0957 667.1167 324.0957 Q665.7417 324.0957 664.7729 323.1582 Q663.6948 322.127 663.6948 320.377 Q663.6948 318.5645 664.8042 317.4707 Q665.7886 316.502 667.1323 316.502 Q668.6948 316.502 669.5854 317.377 Q670.4448 318.2207 670.4448 319.627 Q670.4448 320.0645 670.3511 320.4238 ZM667.1948 317.5957 Q666.3198 317.5957 665.7417 318.1582 Q665.1792 318.6895 665.1011 319.4707 L669.1636 319.4707 Q669.1636 318.6895 668.6636 318.1582 Q668.1323 317.5957 667.1948 317.5957 ZM673.2837 320.0957 L673.2837 323.9551 L671.9243 323.9551 L671.9243 313.9395 Q673.4712 313.877 673.7993 313.877 Q678.1587 313.877 678.1587 316.7832 Q678.1587 320.1738 674.2993 320.1738 Q674.0649 320.1738 673.2837 320.0957 ZM673.2837 315.1738 L673.2837 318.8613 Q674.1587 318.9395 674.2056 318.9395 Q676.7524 318.9395 676.7524 316.9395 Q676.7524 315.0957 674.0337 315.0957 Q673.7524 315.0957 673.2837 315.1738 ZM680.856 316.627 L680.856 321.2988 Q680.856 323.002 682.3247 323.002 Q682.9653 323.002 683.4966 322.627 Q684.0278 322.252 684.1997 321.7676 L684.1997 316.627 L685.4966 316.627 L685.4966 323.9551 L684.1997 323.9551 L684.1997 322.9395 Q683.981 323.377 683.3247 323.7363 Q682.6685 324.0957 682.0435 324.0957 Q680.8403 324.0957 680.1997 323.4082 Q679.5591 322.7051 679.5591 321.4395 L679.5591 316.627 L680.856 316.627 ZM688.3804 323.4238 L687.9272 324.0957 L687.271 324.0957 L687.271 313.627 L688.5679 313.627 L688.5679 317.1738 Q688.7554 316.9238 689.2554 316.7207 Q689.771 316.502 690.271 316.502 Q691.771 316.502 692.6929 317.5488 Q693.6304 318.5801 693.6304 320.1582 Q693.6304 321.9863 692.6929 323.0488 Q691.771 324.0957 690.1616 324.0957 Q689.646 324.0957 689.146 323.9082 Q688.646 323.7051 688.3804 323.4238 ZM688.5679 318.1582 L688.5679 322.3926 Q688.5679 322.502 689.0522 322.752 Q689.5366 323.002 689.8022 323.002 Q691.1147 323.002 691.6929 322.3613 Q692.271 321.7207 692.271 320.2363 Q692.271 318.9863 691.5991 318.2988 Q690.9272 317.5957 689.8022 317.5957 Q689.5522 317.5957 689.1304 317.7988 Q688.7085 318.002 688.5679 318.1582 Z" stroke="none" clip-path="url(#clipPath16)"/>
      <rect x="618.7031" y="408.0637" clip-path="url(#clipPath2)" fill="rgb(245,245,245)" width="120" rx="4" ry="4" height="45" stroke="none"/>
    </g>
    <g stroke-linecap="butt" transform="matrix(1,0,0,1,199,189)" fill="rgb(95,122,173)" text-rendering="geometricPrecision" shape-rendering="geometricPrecision" stroke="rgb(95,122,173)" stroke-width="2" stroke-miterlimit="1.45">
      <rect x="618.7031" y="408.0637" clip-path="url(#clipPath2)" fill="none" width="120" rx="4" ry="4" height="45"/>
    </g>
    <g fill="rgb(88,110,117)" text-rendering="geometricPrecision" shape-rendering="geometricPrecision" transform="matrix(1,0,0,1,199,189)" stroke="rgb(88,110,117)">
      <path d="M678.3511 435.3156 L678.1479 436.6594 Q674.5698 436.6594 673.4448 434.6594 Q673.2417 434.7531 672.5386 434.7531 Q670.6479 434.7531 669.5698 433.2844 Q668.5073 431.8 668.5073 429.4875 Q668.5073 427.3156 669.5854 425.8625 Q670.6792 424.3938 672.5386 424.3938 Q674.6323 424.3938 675.7417 425.7375 Q676.8511 427.0813 676.8511 429.4875 Q676.8511 432.9406 674.7886 434.2219 Q675.5229 435.3156 677.2886 435.3156 L678.3511 435.3156 ZM672.5386 425.6125 Q671.2729 425.6125 670.6011 426.6594 Q669.9448 427.6906 669.9448 429.4875 Q669.9448 431.2063 670.6167 432.3625 Q671.3042 433.5188 672.5386 433.5188 Q673.9448 433.5188 674.6792 432.4563 Q675.4136 431.3781 675.4136 429.4875 Q675.4136 425.6125 672.5386 425.6125 ZM682.0933 425.8 L682.0933 434.5813 L680.7339 434.5813 L680.7339 425.8 L677.5464 425.8 L677.5464 424.5656 L685.4214 424.5656 L685.4214 425.8 L682.0933 425.8 ZM686.8149 434.5813 L686.8149 424.5656 L688.1743 424.5656 L688.1743 434.5813 L686.8149 434.5813 Z" stroke="none" clip-path="url(#clipPath17)"/>
      <rect x="618.7031" y="101.4173" clip-path="url(#clipPath2)" fill="rgb(245,245,245)" width="120" rx="4" ry="4" height="45" stroke="none"/>
    </g>
    <g stroke-linecap="butt" transform="matrix(1,0,0,1,199,189)" fill="rgb(95,122,173)" text-rendering="geometricPrecision" shape-rendering="geometricPrecision" stroke="rgb(95,122,173)" stroke-width="2" stroke-miterlimit="1.45">
      <rect x="618.7031" y="101.4173" clip-path="url(#clipPath2)" fill="none" width="120" rx="4" ry="4" height="45"/>
      <path stroke-miterlimit="10" d="M657.4209 118.2942 L656.9521 119.4505 Q656.2959 118.9817 654.8896 118.9817 Q653.5771 118.9817 652.7803 120.1223 Q651.9834 121.2473 651.9834 123.0442 Q651.9834 124.7473 652.7959 125.8098 Q653.6084 126.8723 654.9053 126.8723 Q656.3115 126.8723 657.0771 125.8723 L657.8271 126.9192 Q656.6396 128.1067 654.7646 128.1067 Q652.7959 128.1067 651.6709 126.7005 Q650.5459 125.2786 650.5459 122.9505 Q650.5459 120.7161 651.749 119.2317 Q652.9521 117.7473 654.8584 117.7473 Q656.499 117.7473 657.4209 118.2942 ZM665.4668 124.4036 L660.1855 124.4036 Q660.1855 125.6848 660.8887 126.3723 Q661.5137 126.9817 662.4824 126.9817 Q663.6074 126.9817 664.3418 126.3255 L664.8887 127.263 Q664.5918 127.5598 663.9668 127.7786 Q663.1855 128.0755 662.2324 128.0755 Q660.8574 128.0755 659.8887 127.138 Q658.8105 126.1067 658.8105 124.3567 Q658.8105 122.5442 659.9199 121.4505 Q660.9043 120.4817 662.248 120.4817 Q663.8105 120.4817 664.7012 121.3567 Q665.5605 122.2005 665.5605 123.6067 Q665.5605 124.0442 665.4668 124.4036 ZM662.3105 121.5755 Q661.4355 121.5755 660.8574 122.138 Q660.2949 122.6692 660.2168 123.4505 L664.2793 123.4505 Q664.2793 122.6692 663.7793 122.138 Q663.248 121.5755 662.3105 121.5755 ZM671.4307 127.9348 L671.4307 123.6692 Q671.4307 122.513 671.0713 122.0442 Q670.7275 121.5755 669.8994 121.5755 Q669.4619 121.5755 668.9775 121.8411 Q668.4932 122.1067 668.2275 122.4973 L668.2275 127.9348 L666.9307 127.9348 L666.9307 120.6067 L667.8213 120.6067 L668.2275 121.5598 Q668.8682 120.4817 670.3369 120.4817 Q672.7432 120.4817 672.7432 123.4036 L672.7432 127.9348 L671.4307 127.9348 ZM674.0957 127.4973 L674.5645 126.263 Q675.6426 126.9817 676.3145 126.9817 Q677.5176 126.9817 677.5176 125.9661 Q677.5176 125.2473 676.3457 124.7161 Q675.4551 124.3098 675.1426 124.1067 Q674.8301 123.888 674.5957 123.6223 Q674.377 123.3411 674.2676 123.0442 Q674.1582 122.7317 674.1582 122.388 Q674.1582 121.4817 674.8145 120.9817 Q675.4707 120.4817 676.5176 120.4817 Q677.3301 120.4817 678.5332 120.9817 L678.1738 122.1848 Q677.3926 121.5755 676.6113 121.5755 Q676.1582 121.5755 675.8301 121.7942 Q675.5176 122.013 675.5176 122.3411 Q675.5176 123.0442 676.3145 123.4036 L677.252 123.8255 Q678.0957 124.2161 678.4863 124.7161 Q678.877 125.2161 678.877 125.9661 Q678.877 126.9505 678.1895 127.513 Q677.502 128.0755 676.2832 128.0755 Q675.127 128.0755 674.0957 127.4973 ZM684.7627 127.9348 L684.7627 123.3411 Q684.7627 122.513 684.3564 122.0442 Q683.9502 121.5755 683.2158 121.5755 Q682.7471 121.5755 682.2627 121.8567 Q681.7939 122.1223 681.5439 122.4973 L681.5439 127.9348 L680.2471 127.9348 L680.2471 117.6067 L681.5439 117.6067 L681.5439 121.4192 Q681.8096 121.013 682.3877 120.7473 Q682.9658 120.4817 683.5752 120.4817 Q684.7471 120.4817 685.4033 121.2473 Q686.0596 122.013 686.0596 123.3411 L686.0596 127.9348 L684.7627 127.9348 ZM692.0371 127.0911 Q691.2559 128.0755 689.6465 128.0755 Q688.7871 128.0755 688.1465 127.4505 Q687.5215 126.8255 687.5215 125.888 Q687.5215 124.7786 688.4902 124.013 Q689.4746 123.2317 690.9746 123.2317 Q691.3965 123.2317 691.9121 123.4192 Q691.9121 121.638 690.3184 121.638 Q689.1152 121.638 688.459 122.2942 L687.9121 121.2005 Q688.2715 120.9036 688.9277 120.7005 Q689.584 120.4817 690.1777 120.4817 Q691.7715 120.4817 692.4902 121.2005 Q693.209 121.9192 693.209 123.4973 L693.209 126.1223 Q693.209 127.0911 693.7871 127.4192 L693.7871 128.0598 Q692.9902 128.0598 692.5996 127.8411 Q692.209 127.6067 692.0371 127.0911 ZM691.9121 124.3411 Q691.3027 124.2005 691.0527 124.2005 Q690.0684 124.2005 689.4434 124.7161 Q688.8184 125.2161 688.8184 125.9036 Q688.8184 127.0442 690.1621 127.0442 Q691.1465 127.0442 691.9121 126.1067 L691.9121 124.3411 ZM699.2363 121.8567 Q698.8145 121.5755 698.377 121.5755 Q697.6895 121.5755 697.1738 122.2161 Q696.6582 122.8411 696.6582 123.7317 L696.6582 127.9348 L695.3613 127.9348 L695.3613 120.6067 L696.6582 120.6067 L696.6582 121.7786 Q697.3613 120.4817 698.7676 120.4817 Q699.1113 120.4817 699.7676 120.6067 L699.2363 121.8567 ZM706.8652 124.4036 L701.584 124.4036 Q701.584 125.6848 702.2871 126.3723 Q702.9121 126.9817 703.8809 126.9817 Q705.0059 126.9817 705.7402 126.3255 L706.2871 127.263 Q705.9902 127.5598 705.3652 127.7786 Q704.584 128.0755 703.6309 128.0755 Q702.2559 128.0755 701.2871 127.138 Q700.209 126.1067 700.209 124.3567 Q700.209 122.5442 701.3184 121.4505 Q702.3027 120.4817 703.6465 120.4817 Q705.209 120.4817 706.0996 121.3567 Q706.959 122.2005 706.959 123.6067 Q706.959 124.0442 706.8652 124.4036 ZM703.709 121.5755 Q702.834 121.5755 702.2559 122.138 Q701.6934 122.6692 701.6152 123.4505 L705.6777 123.4505 Q705.6777 122.6692 705.1777 122.138 Q704.6465 121.5755 703.709 121.5755 Z" stroke-width="1" clip-path="url(#clipPath18)" stroke-linecap="square" stroke="none"/>
    </g>
    <g fill="rgb(245,245,245)" text-rendering="geometricPrecision" shape-rendering="geometricPrecision" transform="matrix(1,0,0,1,199,189)" stroke="rgb(245,245,245)">
      <rect x="618.7031" y="-80.6875" clip-path="url(#clipPath2)" width="120" rx="4" ry="4" height="45" stroke="none"/>
    </g>
    <g stroke-linecap="butt" transform="matrix(1,0,0,1,199,189)" fill="rgb(95,122,173)" text-rendering="geometricPrecision" shape-rendering="geometricPrecision" stroke="rgb(95,122,173)" stroke-width="2" stroke-miterlimit="1.45">
      <rect x="618.7031" y="-80.6875" clip-path="url(#clipPath2)" fill="none" width="120" rx="4" ry="4" height="45"/>
    </g>
    <g fill="rgb(88,110,117)" text-rendering="geometricPrecision" shape-rendering="geometricPrecision" transform="matrix(1,0,0,1,199,189)" stroke="rgb(88,110,117)">
      <path d="M644.21 -54.1699 L641.3506 -54.1699 L641.3506 -64.1855 Q643.1631 -64.2793 643.9756 -64.2793 Q645.46 -64.2793 646.2725 -63.6387 Q647.085 -62.998 647.085 -61.8105 Q647.085 -61.1074 646.5693 -60.5293 Q646.0537 -59.9668 645.4131 -59.8105 Q646.6162 -59.5293 647.1475 -58.8574 Q647.6943 -58.2012 647.6943 -57.0605 Q647.6943 -55.748 646.7256 -54.9512 Q645.7568 -54.1699 644.21 -54.1699 ZM642.71 -63.0918 L642.71 -60.2168 Q643.1475 -60.1699 643.7725 -60.1699 Q645.7256 -60.1699 645.7256 -61.748 Q645.7256 -63.1387 643.9287 -63.1387 Q643.2568 -63.1387 642.71 -63.0918 ZM642.71 -59.1543 L642.71 -55.3262 Q643.4131 -55.2637 643.7881 -55.2637 Q645.085 -55.2637 645.6631 -55.748 Q646.2568 -56.2324 646.2568 -57.2793 Q646.2568 -58.2637 645.6943 -58.7168 Q645.1318 -59.1855 643.8193 -59.1855 L642.71 -59.1543 ZM650.5078 -64.2637 Q650.8359 -64.2637 651.0703 -64.0293 Q651.3047 -63.7949 651.3047 -63.4668 Q651.3047 -63.123 651.0703 -62.8887 Q650.8359 -62.6543 650.5078 -62.6543 Q650.1797 -62.6543 649.9453 -62.8887 Q649.7109 -63.123 649.7109 -63.4668 Q649.7109 -63.7949 649.9297 -64.0293 Q650.1641 -64.2637 650.5078 -64.2637 ZM649.7891 -54.1699 L649.7891 -60.4043 L648.7891 -60.4043 L648.7891 -61.498 L651.0859 -61.498 L651.0859 -54.1699 L649.7891 -54.1699 ZM654.5469 -55.3262 L658.6094 -55.3262 L658.6094 -54.1699 L652.5156 -54.1699 L652.5156 -54.5137 L656.6719 -60.3262 L652.5781 -60.3262 L652.5781 -61.498 L658.5625 -61.498 L658.5625 -61.123 L654.5469 -55.3262 ZM661.2695 -62.9512 L661.2695 -60.1699 L664.582 -60.1699 L664.582 -59.0137 L661.2695 -59.0137 L661.2695 -55.4043 L665.8164 -55.4043 L665.8164 -54.1699 L659.9102 -54.1699 L659.9102 -64.1855 L665.8789 -64.1855 L665.8789 -62.9512 L661.2695 -62.9512 ZM671.7529 -54.1699 L669.7686 -56.8418 L667.9717 -54.1699 L666.4561 -54.1699 L669.1123 -57.9199 L666.6748 -61.498 L668.1436 -61.498 L669.7842 -58.9824 L671.6279 -61.498 L673.0498 -61.498 L670.3936 -57.9199 L673.3154 -54.1699 L671.7529 -54.1699 ZM678.4541 -55.0137 Q677.6729 -54.0293 676.0635 -54.0293 Q675.2041 -54.0293 674.5635 -54.6543 Q673.9385 -55.2793 673.9385 -56.2168 Q673.9385 -57.3262 674.9072 -58.0918 Q675.8916 -58.873 677.3916 -58.873 Q677.8135 -58.873 678.3291 -58.6855 Q678.3291 -60.4668 676.7354 -60.4668 Q675.5322 -60.4668 674.876 -59.8105 L674.3291 -60.9043 Q674.6885 -61.2012 675.3447 -61.4043 Q676.001 -61.623 676.5947 -61.623 Q678.1885 -61.623 678.9072 -60.9043 Q679.626 -60.1855 679.626 -58.6074 L679.626 -55.9824 Q679.626 -55.0137 680.2041 -54.6855 L680.2041 -54.0449 Q679.4072 -54.0449 679.0166 -54.2637 Q678.626 -54.498 678.4541 -55.0137 ZM678.3291 -57.7637 Q677.7197 -57.9043 677.4697 -57.9043 Q676.4854 -57.9043 675.8604 -57.3887 Q675.2354 -56.8887 675.2354 -56.2012 Q675.2354 -55.0605 676.5791 -55.0605 Q677.5635 -55.0605 678.3291 -55.998 L678.3291 -57.7637 ZM690.1533 -54.1699 L690.1533 -58.8105 Q690.1533 -60.5293 688.6533 -60.5293 Q688.1846 -60.5293 687.7627 -60.2324 Q687.3564 -59.9512 687.2002 -59.5918 L687.2002 -54.1699 L685.9033 -54.1699 L685.9033 -59.373 Q685.9033 -59.9199 685.4971 -60.2168 Q685.0908 -60.5293 684.4189 -60.5293 Q684.0283 -60.5293 683.5908 -60.2324 Q683.1533 -59.9355 682.9658 -59.5762 L682.9658 -54.1699 L681.6689 -54.1699 L681.6689 -61.498 L682.5127 -61.498 L682.9502 -60.6387 Q683.7002 -61.623 684.8252 -61.623 Q686.4033 -61.623 687.0283 -60.6543 Q687.2471 -61.0605 687.8408 -61.3418 Q688.4346 -61.623 689.0596 -61.623 Q690.2002 -61.623 690.8252 -60.9512 Q691.4502 -60.2793 691.4502 -59.0605 L691.4502 -54.1699 L690.1533 -54.1699 ZM694.6338 -64.2637 Q694.9619 -64.2637 695.1963 -64.0293 Q695.4307 -63.7949 695.4307 -63.4668 Q695.4307 -63.123 695.1963 -62.8887 Q694.9619 -62.6543 694.6338 -62.6543 Q694.3057 -62.6543 694.0713 -62.8887 Q693.8369 -63.123 693.8369 -63.4668 Q693.8369 -63.7949 694.0557 -64.0293 Q694.29 -64.2637 694.6338 -64.2637 ZM693.915 -54.1699 L693.915 -60.4043 L692.915 -60.4043 L692.915 -61.498 L695.2119 -61.498 L695.2119 -54.1699 L693.915 -54.1699 ZM701.7822 -54.1699 L701.7822 -58.4355 Q701.7822 -59.5918 701.4229 -60.0605 Q701.0791 -60.5293 700.251 -60.5293 Q699.8135 -60.5293 699.3291 -60.2637 Q698.8447 -59.998 698.5791 -59.6074 L698.5791 -54.1699 L697.2822 -54.1699 L697.2822 -61.498 L698.1729 -61.498 L698.5791 -60.5449 Q699.2197 -61.623 700.6885 -61.623 Q703.0947 -61.623 703.0947 -58.7012 L703.0947 -54.1699 L701.7822 -54.1699 ZM711.1035 -57.7012 L705.8223 -57.7012 Q705.8223 -56.4199 706.5254 -55.7324 Q707.1504 -55.123 708.1191 -55.123 Q709.2441 -55.123 709.9785 -55.7793 L710.5254 -54.8418 Q710.2285 -54.5449 709.6035 -54.3262 Q708.8223 -54.0293 707.8691 -54.0293 Q706.4941 -54.0293 705.5254 -54.9668 Q704.4473 -55.998 704.4473 -57.748 Q704.4473 -59.5605 705.5566 -60.6543 Q706.541 -61.623 707.8848 -61.623 Q709.4473 -61.623 710.3379 -60.748 Q711.1973 -59.9043 711.1973 -58.498 Q711.1973 -58.0605 711.1035 -57.7012 ZM707.9473 -60.5293 Q707.0723 -60.5293 706.4941 -59.9668 Q705.9316 -59.4355 705.8535 -58.6543 L709.916 -58.6543 Q709.916 -59.4355 709.416 -59.9668 Q708.8848 -60.5293 707.9473 -60.5293 ZM716.5518 -60.248 Q716.1299 -60.5293 715.6924 -60.5293 Q715.0049 -60.5293 714.4893 -59.8887 Q713.9736 -59.2637 713.9736 -58.373 L713.9736 -54.1699 L712.6768 -54.1699 L712.6768 -61.498 L713.9736 -61.498 L713.9736 -60.3262 Q714.6768 -61.623 716.083 -61.623 Q716.4268 -61.623 717.083 -61.498 L716.5518 -60.248 Z" stroke="none" clip-path="url(#clipPath19)"/>
      <rect x="-66.0138" y="101.4173" clip-path="url(#clipPath2)" fill="rgb(245,245,245)" width="120" rx="4" ry="4" height="45" stroke="none"/>
    </g>
    <g stroke-linecap="butt" transform="matrix(1,0,0,1,199,189)" fill="rgb(95,122,173)" text-rendering="geometricPrecision" shape-rendering="geometricPrecision" stroke="rgb(95,122,173)" stroke-width="2" stroke-miterlimit="1.45">
      <rect x="-66.0138" y="101.4173" clip-path="url(#clipPath2)" fill="none" width="120" rx="4" ry="4" height="45"/>
    </g>
    <g fill="rgb(88,110,117)" text-rendering="geometricPrecision" shape-rendering="geometricPrecision" transform="matrix(1,0,0,1,199,189)" stroke="rgb(88,110,117)">
      <path d="M-16.5383 128.0755 L-16.9601 128.0755 L-19.3508 121.1692 L-21.5851 128.0755 L-22.007 128.0755 L-25.1633 117.9192 L-23.7414 117.9192 L-21.7414 124.9192 L-19.5383 117.9192 L-19.0539 117.9192 L-16.882 124.9036 L-14.8351 117.9192 L-13.4133 117.9192 L-16.5383 128.0755 ZM-11.0627 117.8411 Q-10.7345 117.8411 -10.5002 118.0755 Q-10.2658 118.3098 -10.2658 118.638 Q-10.2658 118.9817 -10.5002 119.2161 Q-10.7345 119.4505 -11.0627 119.4505 Q-11.3908 119.4505 -11.6252 119.2161 Q-11.8595 118.9817 -11.8595 118.638 Q-11.8595 118.3098 -11.6408 118.0755 Q-11.4064 117.8411 -11.0627 117.8411 ZM-11.7814 127.9348 L-11.7814 121.7005 L-12.7814 121.7005 L-12.7814 120.6067 L-10.4845 120.6067 L-10.4845 127.9348 L-11.7814 127.9348 ZM-8.8986 127.4973 L-8.4299 126.263 Q-7.3517 126.9817 -6.6799 126.9817 Q-5.4767 126.9817 -5.4767 125.9661 Q-5.4767 125.2473 -6.6486 124.7161 Q-7.5392 124.3098 -7.8517 124.1067 Q-8.1642 123.888 -8.3986 123.6223 Q-8.6174 123.3411 -8.7267 123.0442 Q-8.8361 122.7317 -8.8361 122.388 Q-8.8361 121.4817 -8.1799 120.9817 Q-7.5236 120.4817 -6.4767 120.4817 Q-5.6642 120.4817 -4.4611 120.9817 L-4.8205 122.1848 Q-5.6017 121.5755 -6.383 121.5755 Q-6.8361 121.5755 -7.1642 121.7942 Q-7.4767 122.013 -7.4767 122.3411 Q-7.4767 123.0442 -6.6799 123.4036 L-5.7424 123.8255 Q-4.8986 124.2161 -4.508 124.7161 Q-4.1174 125.2161 -4.1174 125.9661 Q-4.1174 126.9505 -4.8049 127.513 Q-5.4924 128.0755 -6.7111 128.0755 Q-7.8674 128.0755 -8.8986 127.4973 ZM-2.2785 121.638 L-3.1222 121.638 L-3.1222 120.6067 L-2.2785 120.6067 L-2.2785 119.0755 L-0.9816 118.5755 L-0.9816 120.6067 L1.034 120.6067 L1.034 121.638 L-0.9816 121.638 L-0.9816 125.2786 Q-0.9816 126.2005 -0.6691 126.5911 Q-0.3566 126.9817 0.3309 126.9817 Q0.8309 126.9817 1.3621 126.7317 L1.5496 127.8723 Q0.7528 128.0755 -0.216 128.0755 Q-1.091 128.0755 -1.6847 127.4348 Q-2.2785 126.7786 -2.2785 125.7942 L-2.2785 121.638 ZM4.1473 117.8411 Q4.4754 117.8411 4.7098 118.0755 Q4.9442 118.3098 4.9442 118.638 Q4.9442 118.9817 4.7098 119.2161 Q4.4754 119.4505 4.1473 119.4505 Q3.8192 119.4505 3.5848 119.2161 Q3.3504 118.9817 3.3504 118.638 Q3.3504 118.3098 3.5692 118.0755 Q3.8035 117.8411 4.1473 117.8411 ZM3.4285 127.9348 L3.4285 121.7005 L2.4285 121.7005 L2.4285 120.6067 L4.7254 120.6067 L4.7254 127.9348 L3.4285 127.9348 ZM10.9364 127.0911 Q10.1551 128.0755 8.5457 128.0755 Q7.6864 128.0755 7.0457 127.4505 Q6.4207 126.8255 6.4207 125.888 Q6.4207 124.7786 7.3895 124.013 Q8.3739 123.2317 9.8739 123.2317 Q10.2957 123.2317 10.8114 123.4192 Q10.8114 121.638 9.2176 121.638 Q8.0145 121.638 7.3582 122.2942 L6.8114 121.2005 Q7.1707 120.9036 7.827 120.7005 Q8.4832 120.4817 9.077 120.4817 Q10.6707 120.4817 11.3895 121.2005 Q12.1082 121.9192 12.1082 123.4973 L12.1082 126.1223 Q12.1082 127.0911 12.6864 127.4192 L12.6864 128.0598 Q11.8895 128.0598 11.4989 127.8411 Q11.1082 127.6067 10.9364 127.0911 ZM10.8114 124.3411 Q10.202 124.2005 9.952 124.2005 Q8.9676 124.2005 8.3426 124.7161 Q7.7176 125.2161 7.7176 125.9036 Q7.7176 127.0442 9.0614 127.0442 Q10.0457 127.0442 10.8114 126.1067 L10.8114 124.3411 Z" stroke="none" clip-path="url(#clipPath20)"/>
      <rect x="425.4141" y="297.4375" clip-path="url(#clipPath2)" fill="rgb(245,245,245)" width="120" rx="4" ry="4" height="45" stroke="none"/>
    </g>
    <g stroke-linecap="butt" transform="matrix(1,0,0,1,199,189)" fill="rgb(95,122,173)" text-rendering="geometricPrecision" shape-rendering="geometricPrecision" stroke="rgb(95,122,173)" stroke-width="2" stroke-miterlimit="1.45">
      <rect x="425.4141" y="297.4375" clip-path="url(#clipPath2)" fill="none" width="120" rx="4" ry="4" height="45"/>
    </g>
    <g fill="rgb(88,110,117)" text-rendering="geometricPrecision" shape-rendering="geometricPrecision" transform="matrix(1,0,0,1,199,189)" stroke="rgb(88,110,117)">
      <path d="M468.0283 320.4238 L462.7471 320.4238 Q462.7471 321.7051 463.4502 322.3926 Q464.0752 323.002 465.0439 323.002 Q466.1689 323.002 466.9033 322.3457 L467.4502 323.2832 Q467.1533 323.5801 466.5283 323.7988 Q465.7471 324.0957 464.7939 324.0957 Q463.4189 324.0957 462.4502 323.1582 Q461.3721 322.127 461.3721 320.377 Q461.3721 318.5645 462.4814 317.4707 Q463.4658 316.502 464.8096 316.502 Q466.3721 316.502 467.2627 317.377 Q468.1221 318.2207 468.1221 319.627 Q468.1221 320.0645 468.0283 320.4238 ZM464.8721 317.5957 Q463.9971 317.5957 463.4189 318.1582 Q462.8564 318.6895 462.7783 319.4707 L466.8408 319.4707 Q466.8408 318.6895 466.3408 318.1582 Q465.8096 317.5957 464.8721 317.5957 ZM473.9453 323.9551 L471.9609 321.2832 L470.1641 323.9551 L468.6484 323.9551 L471.3047 320.2051 L468.8672 316.627 L470.3359 316.627 L471.9766 319.1426 L473.8203 316.627 L475.2422 316.627 L472.5859 320.2051 L475.5078 323.9551 L473.9453 323.9551 ZM482.3496 323.9551 L482.3496 319.1113 L477.9746 319.1113 L477.9746 323.9551 L476.6152 323.9551 L476.6152 313.9395 L477.9746 313.9395 L477.9746 317.9551 L482.3496 317.9551 L482.3496 313.9395 L483.7246 313.9395 L483.7246 323.9551 L482.3496 323.9551 ZM489.416 315.1738 L489.416 323.9551 L488.0566 323.9551 L488.0566 315.1738 L484.8691 315.1738 L484.8691 313.9395 L492.7441 313.9395 L492.7441 315.1738 L489.416 315.1738 ZM501.4346 323.9551 L500.2471 317.5176 L498.0596 324.0957 L497.7158 324.0957 L495.4658 317.5176 L494.3096 323.9551 L493.0127 323.9551 L494.8877 313.9395 L495.4971 313.9395 L497.8877 321.252 L500.0908 313.9395 L500.7002 313.9395 L502.7314 323.9551 L501.4346 323.9551 ZM503.8359 323.9551 L503.8359 313.9395 L505.1953 313.9395 L505.1953 322.7207 L509.7266 322.7207 L509.7266 323.9551 L503.8359 323.9551 Z" stroke="none" clip-path="url(#clipPath21)"/>
      <rect x="184" y="18.5863" clip-path="url(#clipPath2)" fill="rgb(245,245,245)" width="216.25" rx="4" ry="4" height="45" stroke="none"/>
    </g>
    <g stroke-linecap="butt" transform="matrix(1,0,0,1,199,189)" fill="rgb(95,122,173)" text-rendering="geometricPrecision" shape-rendering="geometricPrecision" stroke="rgb(95,122,173)" stroke-width="2" stroke-miterlimit="1.45">
      <rect x="184" y="18.5863" clip-path="url(#clipPath2)" fill="none" width="216.25" rx="4" ry="4" height="45"/>
    </g>
    <g fill="rgb(88,110,117)" text-rendering="geometricPrecision" shape-rendering="geometricPrecision" transform="matrix(1,0,0,1,199,189)" stroke="rgb(88,110,117)">
      <path d="M196.7729 45.1039 L196.7729 35.0883 L198.1323 35.0883 L198.1323 43.8695 L202.6636 43.8695 L202.6636 45.1039 L196.7729 45.1039 ZM209.9243 41.5726 L204.6431 41.5726 Q204.6431 42.8539 205.3462 43.5414 Q205.9712 44.1508 206.9399 44.1508 Q208.0649 44.1508 208.7993 43.4945 L209.3462 44.432 Q209.0493 44.7289 208.4243 44.9476 Q207.6431 45.2445 206.6899 45.2445 Q205.3149 45.2445 204.3462 44.307 Q203.2681 43.2758 203.2681 41.5258 Q203.2681 39.7133 204.3774 38.6195 Q205.3618 37.6508 206.7056 37.6508 Q208.2681 37.6508 209.1587 38.5258 Q210.0181 39.3695 210.0181 40.7758 Q210.0181 41.2133 209.9243 41.5726 ZM206.7681 38.7445 Q205.8931 38.7445 205.3149 39.307 Q204.7524 39.8383 204.6743 40.6195 L208.7368 40.6195 Q208.7368 39.8383 208.2368 39.307 Q207.7056 38.7445 206.7681 38.7445 ZM215.5288 44.2601 Q214.7476 45.2445 213.1382 45.2445 Q212.2788 45.2445 211.6382 44.6195 Q211.0132 43.9945 211.0132 43.057 Q211.0132 41.9476 211.9819 41.182 Q212.9663 40.4008 214.4663 40.4008 Q214.8882 40.4008 215.4038 40.5883 Q215.4038 38.807 213.8101 38.807 Q212.6069 38.807 211.9507 39.4633 L211.4038 38.3695 Q211.7632 38.0726 212.4194 37.8695 Q213.0757 37.6508 213.6694 37.6508 Q215.2632 37.6508 215.9819 38.3695 Q216.7007 39.0883 216.7007 40.6664 L216.7007 43.2914 Q216.7007 44.2601 217.2788 44.5883 L217.2788 45.2289 Q216.4819 45.2289 216.0913 45.0101 Q215.7007 44.7758 215.5288 44.2601 ZM215.4038 41.5101 Q214.7944 41.3695 214.5444 41.3695 Q213.5601 41.3695 212.9351 41.8851 Q212.3101 42.3851 212.3101 43.0726 Q212.3101 44.2133 213.6538 44.2133 Q214.6382 44.2133 215.4038 43.2758 L215.4038 41.5101 ZM222.728 39.0258 Q222.3062 38.7445 221.8687 38.7445 Q221.1812 38.7445 220.6655 39.3851 Q220.1499 40.0101 220.1499 40.9008 L220.1499 45.1039 L218.853 45.1039 L218.853 37.7758 L220.1499 37.7758 L220.1499 38.9476 Q220.853 37.6508 222.2593 37.6508 Q222.603 37.6508 223.2593 37.7758 L222.728 39.0258 ZM228.6851 45.1039 L228.6851 40.8383 Q228.6851 39.682 228.3257 39.2133 Q227.9819 38.7445 227.1538 38.7445 Q226.7163 38.7445 226.2319 39.0101 Q225.7476 39.2758 225.4819 39.6664 L225.4819 45.1039 L224.1851 45.1039 L224.1851 37.7758 L225.0757 37.7758 L225.4819 38.7289 Q226.1226 37.6508 227.5913 37.6508 Q229.9976 37.6508 229.9976 40.5726 L229.9976 45.1039 L228.6851 45.1039 ZM233.1782 35.0101 Q233.5063 35.0101 233.7407 35.2445 Q233.9751 35.4789 233.9751 35.807 Q233.9751 36.1508 233.7407 36.3851 Q233.5063 36.6195 233.1782 36.6195 Q232.8501 36.6195 232.6157 36.3851 Q232.3813 36.1508 232.3813 35.807 Q232.3813 35.4789 232.6001 35.2445 Q232.8345 35.0101 233.1782 35.0101 ZM232.4595 45.1039 L232.4595 38.8695 L231.4595 38.8695 L231.4595 37.7758 L233.7563 37.7758 L233.7563 45.1039 L232.4595 45.1039 ZM240.3267 45.1039 L240.3267 40.8383 Q240.3267 39.682 239.9673 39.2133 Q239.6235 38.7445 238.7954 38.7445 Q238.3579 38.7445 237.8735 39.0101 Q237.3892 39.2758 237.1235 39.6664 L237.1235 45.1039 L235.8267 45.1039 L235.8267 37.7758 L236.7173 37.7758 L237.1235 38.7289 Q237.7642 37.6508 239.2329 37.6508 Q241.6392 37.6508 241.6392 40.5726 L241.6392 45.1039 L240.3267 45.1039 ZM243.2104 47.1039 L243.9136 46.0726 Q245.0542 46.8226 246.0073 46.8226 Q246.8823 46.8226 247.3979 46.5101 Q247.9136 46.2133 247.9136 45.7601 Q247.9136 44.8851 246.6167 44.8851 Q246.3979 44.8851 245.8198 44.9945 Q245.2573 45.1039 244.9292 45.1039 Q243.3823 45.1039 243.3823 43.9164 Q243.3823 43.557 243.7417 43.2601 Q244.1011 42.9633 244.6479 42.8383 Q243.1011 42.1195 243.1011 40.3226 Q243.1011 39.182 243.8979 38.4164 Q244.6948 37.6508 245.8823 37.6508 Q246.9604 37.6508 247.5698 38.0883 L248.2104 37.307 L249.0698 38.1039 L248.2886 38.6976 Q248.7886 39.3539 248.7886 40.4008 Q248.7886 41.4945 248.0854 42.2601 Q247.3979 43.0101 246.2729 43.1195 L245.2104 43.2289 Q245.0229 43.2445 244.6948 43.3695 Q244.3667 43.4945 244.3667 43.6976 Q244.3667 43.9789 245.0386 43.9789 Q245.3354 43.9789 245.9604 43.8851 Q246.5854 43.7758 246.8823 43.7758 Q247.9604 43.7758 248.5698 44.2914 Q249.1792 44.807 249.1792 45.7133 Q249.1792 46.7289 248.2729 47.3539 Q247.3667 47.9789 245.9761 47.9789 Q245.2573 47.9789 244.4761 47.7133 Q243.6948 47.4633 243.2104 47.1039 ZM245.9604 38.6976 Q245.2886 38.6976 244.8511 39.182 Q244.4292 39.6508 244.4292 40.3383 Q244.4292 41.1039 244.8354 41.6039 Q245.2573 42.1039 245.9604 42.1039 Q246.6636 42.1039 247.0386 41.6195 Q247.4292 41.1195 247.4292 40.3383 Q247.4292 39.6508 247.0073 39.182 Q246.6011 38.6976 245.9604 38.6976 ZM260.5181 45.1039 L259.8149 42.9945 L256.0962 42.9945 L255.3618 45.1039 L253.8306 45.1039 L257.8931 34.9476 L258.2524 34.9476 L262.0337 45.1039 L260.5181 45.1039 ZM258.0181 37.5726 L256.4556 41.9789 L259.4399 41.9789 L258.0181 37.5726 ZM267.479 45.1039 L267.479 40.8383 Q267.479 39.682 267.1196 39.2133 Q266.7759 38.7445 265.9478 38.7445 Q265.5103 38.7445 265.0259 39.0101 Q264.5415 39.2758 264.2759 39.6664 L264.2759 45.1039 L262.979 45.1039 L262.979 37.7758 L263.8696 37.7758 L264.2759 38.7289 Q264.9165 37.6508 266.3853 37.6508 Q268.7915 37.6508 268.7915 40.5726 L268.7915 45.1039 L267.479 45.1039 ZM274.769 44.2601 Q273.9878 45.2445 272.3784 45.2445 Q271.519 45.2445 270.8784 44.6195 Q270.2534 43.9945 270.2534 43.057 Q270.2534 41.9476 271.2222 41.182 Q272.2065 40.4008 273.7065 40.4008 Q274.1284 40.4008 274.644 40.5883 Q274.644 38.807 273.0503 38.807 Q271.8472 38.807 271.1909 39.4633 L270.644 38.3695 Q271.0034 38.0726 271.6597 37.8695 Q272.3159 37.6508 272.9097 37.6508 Q274.5034 37.6508 275.2222 38.3695 Q275.9409 39.0883 275.9409 40.6664 L275.9409 43.2914 Q275.9409 44.2601 276.519 44.5883 L276.519 45.2289 Q275.7222 45.2289 275.3315 45.0101 Q274.9409 44.7758 274.769 44.2601 ZM274.644 41.5101 Q274.0347 41.3695 273.7847 41.3695 Q272.8003 41.3695 272.1753 41.8851 Q271.5503 42.3851 271.5503 43.0726 Q271.5503 44.2133 272.894 44.2133 Q273.8784 44.2133 274.644 43.2758 L274.644 41.5101 ZM278.0933 43.0258 L278.0933 34.7758 L279.3901 34.7758 L279.3901 42.807 Q279.3901 43.4008 279.7183 43.7445 Q280.062 44.0726 280.6089 44.0726 L280.6089 45.2445 Q278.0933 45.2445 278.0933 43.0258 ZM284.9097 46.3539 Q284.6597 47.0414 283.8472 47.5101 Q283.0347 47.9789 282.0347 47.9789 L282.0347 46.807 Q282.8472 46.807 283.4253 46.432 Q284.019 46.057 284.019 45.5101 Q284.019 44.9008 283.8003 44.3226 Q283.5972 43.7289 283.2534 42.8695 L281.269 37.7758 L282.5972 37.7758 L284.7534 43.4476 L286.6909 37.7758 L288.019 37.7758 L284.9097 46.3539 ZM289.4858 38.807 L288.6421 38.807 L288.6421 37.7758 L289.4858 37.7758 L289.4858 36.2445 L290.7827 35.7445 L290.7827 37.7758 L292.7983 37.7758 L292.7983 38.807 L290.7827 38.807 L290.7827 42.4476 Q290.7827 43.3695 291.0952 43.7601 Q291.4077 44.1508 292.0952 44.1508 Q292.5952 44.1508 293.1265 43.9008 L293.314 45.0414 Q292.5171 45.2445 291.5483 45.2445 Q290.6733 45.2445 290.0796 44.6039 Q289.4858 43.9476 289.4858 42.9633 L289.4858 38.807 ZM295.9116 35.0101 Q296.2397 35.0101 296.4741 35.2445 Q296.7085 35.4789 296.7085 35.807 Q296.7085 36.1508 296.4741 36.3851 Q296.2397 36.6195 295.9116 36.6195 Q295.5835 36.6195 295.3491 36.3851 Q295.1147 36.1508 295.1147 35.807 Q295.1147 35.4789 295.3335 35.2445 Q295.5679 35.0101 295.9116 35.0101 ZM295.1929 45.1039 L295.1929 38.8695 L294.1929 38.8695 L294.1929 37.7758 L296.4897 37.7758 L296.4897 45.1039 L295.1929 45.1039 ZM304.0913 38.3695 L303.4351 39.2914 Q303.2476 39.0883 302.7319 38.9164 Q302.2319 38.7445 301.7476 38.7445 Q300.7007 38.7445 300.0757 39.4945 Q299.4507 40.2289 299.4507 41.5101 Q299.4507 42.807 300.0757 43.4789 Q300.7163 44.1508 301.8569 44.1508 Q302.7319 44.1508 303.6069 43.4633 L304.1226 44.557 Q303.0757 45.2445 301.5288 45.2445 Q300.0444 45.2445 299.0601 44.2445 Q298.0757 43.2289 298.0757 41.5101 Q298.0757 39.7601 299.0913 38.7133 Q300.1069 37.6508 301.8726 37.6508 Q302.4507 37.6508 303.1069 37.8851 Q303.7632 38.1195 304.0913 38.3695 ZM305.0073 44.6664 L305.4761 43.432 Q306.5542 44.1508 307.2261 44.1508 Q308.4292 44.1508 308.4292 43.1351 Q308.4292 42.4164 307.2573 41.8851 Q306.3667 41.4789 306.0542 41.2758 Q305.7417 41.057 305.5073 40.7914 Q305.2886 40.5101 305.1792 40.2133 Q305.0698 39.9008 305.0698 39.557 Q305.0698 38.6508 305.7261 38.1508 Q306.3823 37.6508 307.4292 37.6508 Q308.2417 37.6508 309.4448 38.1508 L309.0854 39.3539 Q308.3042 38.7445 307.5229 38.7445 Q307.0698 38.7445 306.7417 38.9633 Q306.4292 39.182 306.4292 39.5101 Q306.4292 40.2133 307.2261 40.5726 L308.1636 40.9945 Q309.0073 41.3851 309.3979 41.8851 Q309.7886 42.3851 309.7886 43.1351 Q309.7886 44.1195 309.1011 44.682 Q308.4136 45.2445 307.1948 45.2445 Q306.0386 45.2445 305.0073 44.6664 ZM316.8452 36.3226 L316.8452 39.1039 L320.3608 39.1039 L320.3608 40.2601 L316.8452 40.2601 L316.8452 45.1039 L315.4858 45.1039 L315.4858 35.0883 L321.6733 35.0883 L321.6733 36.3226 L316.8452 36.3226 ZM326.7095 39.0258 Q326.2876 38.7445 325.8501 38.7445 Q325.1626 38.7445 324.647 39.3851 Q324.1313 40.0101 324.1313 40.9008 L324.1313 45.1039 L322.8345 45.1039 L322.8345 37.7758 L324.1313 37.7758 L324.1313 38.9476 Q324.8345 37.6508 326.2407 37.6508 Q326.5845 37.6508 327.2407 37.7758 L326.7095 39.0258 ZM332.3071 44.2601 Q331.5259 45.2445 329.9165 45.2445 Q329.0571 45.2445 328.4165 44.6195 Q327.7915 43.9945 327.7915 43.057 Q327.7915 41.9476 328.7603 41.182 Q329.7446 40.4008 331.2446 40.4008 Q331.6665 40.4008 332.1821 40.5883 Q332.1821 38.807 330.5884 38.807 Q329.3853 38.807 328.729 39.4633 L328.1821 38.3695 Q328.5415 38.0726 329.1978 37.8695 Q329.854 37.6508 330.4478 37.6508 Q332.0415 37.6508 332.7603 38.3695 Q333.479 39.0883 333.479 40.6664 L333.479 43.2914 Q333.479 44.2601 334.0571 44.5883 L334.0571 45.2289 Q333.2603 45.2289 332.8696 45.0101 Q332.479 44.7758 332.3071 44.2601 ZM332.1821 41.5101 Q331.5728 41.3695 331.3228 41.3695 Q330.3384 41.3695 329.7134 41.8851 Q329.0884 42.3851 329.0884 43.0726 Q329.0884 44.2133 330.4321 44.2133 Q331.4165 44.2133 332.1821 43.2758 L332.1821 41.5101 ZM344.0063 45.1039 L344.0063 40.4633 Q344.0063 38.7445 342.5063 38.7445 Q342.0376 38.7445 341.6157 39.0414 Q341.2095 39.3226 341.0532 39.682 L341.0532 45.1039 L339.7563 45.1039 L339.7563 39.9008 Q339.7563 39.3539 339.3501 39.057 Q338.9438 38.7445 338.272 38.7445 Q337.8813 38.7445 337.4438 39.0414 Q337.0063 39.3383 336.8188 39.6976 L336.8188 45.1039 L335.522 45.1039 L335.522 37.7758 L336.3657 37.7758 L336.8032 38.6351 Q337.5532 37.6508 338.6782 37.6508 Q340.2563 37.6508 340.8813 38.6195 Q341.1001 38.2133 341.6938 37.932 Q342.2876 37.6508 342.9126 37.6508 Q344.0532 37.6508 344.6782 38.3226 Q345.3032 38.9945 345.3032 40.2133 L345.3032 45.1039 L344.0063 45.1039 ZM353.3149 41.5726 L348.0337 41.5726 Q348.0337 42.8539 348.7368 43.5414 Q349.3618 44.1508 350.3306 44.1508 Q351.4556 44.1508 352.1899 43.4945 L352.7368 44.432 Q352.4399 44.7289 351.8149 44.9476 Q351.0337 45.2445 350.0806 45.2445 Q348.7056 45.2445 347.7368 44.307 Q346.6587 43.2758 346.6587 41.5258 Q346.6587 39.7133 347.7681 38.6195 Q348.7524 37.6508 350.0962 37.6508 Q351.6587 37.6508 352.5493 38.5258 Q353.4087 39.3695 353.4087 40.7758 Q353.4087 41.2133 353.3149 41.5726 ZM350.1587 38.7445 Q349.2837 38.7445 348.7056 39.307 Q348.1431 39.8383 348.0649 40.6195 L352.1274 40.6195 Q352.1274 39.8383 351.6274 39.307 Q351.0962 38.7445 350.1587 38.7445 ZM361.5444 45.2445 L361.2007 45.2445 L359.0601 40.2601 L356.9194 45.2445 L356.5757 45.2445 L353.9663 37.7601 L355.3413 37.7601 L356.9194 42.5726 L358.8569 37.7601 L359.2007 37.7601 L361.2163 42.5726 L362.8882 37.7601 L364.1694 37.7601 L361.5444 45.2445 ZM364.7124 41.432 Q364.7124 39.7289 365.6187 38.6976 Q366.5405 37.6508 368.0405 37.6508 Q369.603 37.6508 370.4624 38.6508 Q371.3374 39.6508 371.3374 41.432 Q371.3374 43.1976 370.4468 44.2289 Q369.5718 45.2445 368.0405 45.2445 Q366.4624 45.2445 365.5874 44.2133 Q364.7124 43.182 364.7124 41.432 ZM366.0874 41.432 Q366.0874 44.182 368.0405 44.182 Q368.9468 44.182 369.4624 43.4476 Q369.978 42.6976 369.978 41.432 Q369.978 38.6976 368.0405 38.6976 Q367.1499 38.6976 366.6187 39.432 Q366.0874 40.1508 366.0874 41.432 ZM376.6938 39.0258 Q376.272 38.7445 375.8345 38.7445 Q375.147 38.7445 374.6313 39.3851 Q374.1157 40.0101 374.1157 40.9008 L374.1157 45.1039 L372.8188 45.1039 L372.8188 37.7758 L374.1157 37.7758 L374.1157 38.9476 Q374.8188 37.6508 376.2251 37.6508 Q376.5688 37.6508 377.2251 37.7758 L376.6938 39.0258 ZM382.8853 45.1039 L380.5884 41.432 L379.4478 42.6039 L379.4478 45.1039 L378.1509 45.1039 L378.1509 34.7758 L379.4478 34.7758 L379.4478 41.182 L382.2603 37.7758 L383.7759 37.7758 L381.4321 40.557 L384.2915 45.1039 L382.8853 45.1039 Z" stroke="none" clip-path="url(#clipPath22)"/>
      <rect x="618.7031" y="352.7506" clip-path="url(#clipPath2)" fill="rgb(245,245,245)" width="120" rx="4" ry="4" height="45" stroke="none"/>
    </g>
    <g stroke-linecap="butt" transform="matrix(1,0,0,1,199,189)" fill="rgb(95,122,173)" text-rendering="geometricPrecision" shape-rendering="geometricPrecision" stroke="rgb(95,122,173)" stroke-width="2" stroke-miterlimit="1.45">
      <rect x="618.7031" y="352.7506" clip-path="url(#clipPath2)" fill="none" width="120" rx="4" ry="4" height="45"/>
    </g>
    <g fill="rgb(236,151,69)" text-rendering="geometricPrecision" shape-rendering="geometricPrecision" transform="matrix(1,0,0,1,199,189)" stroke="rgb(236,151,69)">
      <path d="M656.8467 379.2682 L656.8467 374.4244 L652.4717 374.4244 L652.4717 379.2682 L651.1123 379.2682 L651.1123 369.2526 L652.4717 369.2526 L652.4717 373.2682 L656.8467 373.2682 L656.8467 369.2526 L658.2217 369.2526 L658.2217 379.2682 L656.8467 379.2682 ZM663.9131 370.4869 L663.9131 379.2682 L662.5537 379.2682 L662.5537 370.4869 L659.3662 370.4869 L659.3662 369.2526 L667.2412 369.2526 L667.2412 370.4869 L663.9131 370.4869 ZM675.9316 379.2682 L674.7441 372.8307 L672.5566 379.4088 L672.2129 379.4088 L669.9629 372.8307 L668.8066 379.2682 L667.5098 379.2682 L669.3848 369.2526 L669.9941 369.2526 L672.3848 376.5651 L674.5879 369.2526 L675.1973 369.2526 L677.2285 379.2682 L675.9316 379.2682 ZM678.333 379.2682 L678.333 369.2526 L679.6924 369.2526 L679.6924 378.0338 L684.2236 378.0338 L684.2236 379.2682 L678.333 379.2682 ZM689.8125 379.2682 L689.8125 375.0026 Q689.8125 373.8463 689.4531 373.3776 Q689.1094 372.9088 688.2812 372.9088 Q687.8438 372.9088 687.3594 373.1744 Q686.875 373.4401 686.6094 373.8307 L686.6094 379.2682 L685.3125 379.2682 L685.3125 371.9401 L686.2031 371.9401 L686.6094 372.8932 Q687.25 371.8151 688.7188 371.8151 Q691.125 371.8151 691.125 374.7369 L691.125 379.2682 L689.8125 379.2682 ZM699.1338 375.7369 L693.8525 375.7369 Q693.8525 377.0182 694.5557 377.7057 Q695.1807 378.3151 696.1494 378.3151 Q697.2744 378.3151 698.0088 377.6588 L698.5557 378.5963 Q698.2588 378.8932 697.6338 379.1119 Q696.8525 379.4088 695.8994 379.4088 Q694.5244 379.4088 693.5557 378.4713 Q692.4775 377.4401 692.4775 375.6901 Q692.4775 373.8776 693.5869 372.7838 Q694.5713 371.8151 695.915 371.8151 Q697.4775 371.8151 698.3682 372.6901 Q699.2275 373.5338 699.2275 374.9401 Q699.2275 375.3776 699.1338 375.7369 ZM695.9775 372.9088 Q695.1025 372.9088 694.5244 373.4713 Q693.9619 374.0026 693.8838 374.7838 L697.9463 374.7838 Q697.9463 374.0026 697.4463 373.4713 Q696.915 372.9088 695.9775 372.9088 ZM701.832 371.9401 L701.832 376.6119 Q701.832 378.3151 703.3008 378.3151 Q703.9414 378.3151 704.4727 377.9401 Q705.0039 377.5651 705.1758 377.0807 L705.1758 371.9401 L706.4727 371.9401 L706.4727 379.2682 L705.1758 379.2682 L705.1758 378.2526 Q704.957 378.6901 704.3008 379.0494 Q703.6445 379.4088 703.0195 379.4088 Q701.8164 379.4088 701.1758 378.7213 Q700.5352 378.0182 700.5352 376.7526 L700.5352 371.9401 L701.832 371.9401 Z" stroke="none" clip-path="url(#clipPath23)"/>
      <rect x="618.7031" y="463.3768" clip-path="url(#clipPath2)" fill="rgb(245,245,245)" width="120" rx="4" ry="4" height="45" stroke="none"/>
    </g>
    <g stroke-linecap="butt" transform="matrix(1,0,0,1,199,189)" fill="rgb(95,122,173)" text-rendering="geometricPrecision" shape-rendering="geometricPrecision" stroke="rgb(95,122,173)" stroke-width="2" stroke-miterlimit="1.45">
      <rect x="618.7031" y="463.3768" clip-path="url(#clipPath2)" fill="none" width="120" rx="4" ry="4" height="45"/>
    </g>
    <g fill="rgb(88,110,117)" text-rendering="geometricPrecision" shape-rendering="geometricPrecision" transform="matrix(1,0,0,1,199,189)" stroke="rgb(88,110,117)">
      <path d="M671.0806 490.035 L670.6587 490.035 L668.2681 483.1288 L666.0337 490.035 L665.6118 490.035 L662.4556 479.8788 L663.8774 479.8788 L665.8774 486.8788 L668.0806 479.8788 L668.5649 479.8788 L670.7368 486.8631 L672.7837 479.8788 L674.2056 479.8788 L671.0806 490.035 ZM674.728 486.2225 Q674.728 484.5194 675.6343 483.4881 Q676.5562 482.4413 678.0562 482.4413 Q679.6187 482.4413 680.478 483.4413 Q681.353 484.4413 681.353 486.2225 Q681.353 487.9881 680.4624 489.0194 Q679.5874 490.035 678.0562 490.035 Q676.478 490.035 675.603 489.0038 Q674.728 487.9725 674.728 486.2225 ZM676.103 486.2225 Q676.103 488.9725 678.0562 488.9725 Q678.9624 488.9725 679.478 488.2381 Q679.9937 487.4881 679.9937 486.2225 Q679.9937 483.4881 678.0562 483.4881 Q677.1655 483.4881 676.6343 484.2225 Q676.103 484.9413 676.103 486.2225 ZM686.7095 483.8163 Q686.2876 483.535 685.8501 483.535 Q685.1626 483.535 684.647 484.1756 Q684.1313 484.8006 684.1313 485.6913 L684.1313 489.8944 L682.8345 489.8944 L682.8345 482.5663 L684.1313 482.5663 L684.1313 483.7381 Q684.8345 482.4413 686.2407 482.4413 Q686.5845 482.4413 687.2407 482.5663 L686.7095 483.8163 ZM692.8071 489.8944 L692.8071 489.3475 Q692.1353 490.0194 690.8384 490.0194 Q689.4634 490.0194 688.604 489.035 Q687.7603 488.0506 687.7603 486.41 Q687.7603 484.7694 688.7446 483.6131 Q689.729 482.4413 691.0884 482.4413 Q692.229 482.4413 692.8071 482.9725 L692.8071 479.5663 L694.104 479.5663 L694.104 489.8944 L692.8071 489.8944 ZM692.8071 484.2694 Q692.3228 483.535 691.4634 483.535 Q690.4165 483.535 689.7603 484.3163 Q689.1196 485.0819 689.1196 486.285 Q689.1196 488.9413 691.5259 488.9413 Q691.8384 488.9413 692.2603 488.7538 Q692.6978 488.5506 692.8071 488.3319 L692.8071 484.2694 Z" stroke="none" clip-path="url(#clipPath24)"/>
    </g>
    <g text-rendering="geometricPrecision" stroke-miterlimit="1.45" shape-rendering="geometricPrecision" transform="matrix(1,0,0,1,199,189)" stroke-linecap="butt">
      <path fill="none" d="M54.015 271.2058 L224.7228 343.0654" clip-path="url(#clipPath2)"/>
      <path d="M232.0962 346.1692 L222.976 336.9051 L223.8011 342.6774 L219.0963 346.1218 Z" clip-path="url(#clipPath2)" stroke="none"/>
      <path fill="none" d="M54.015 421.1692 L224.7228 349.3096" clip-path="url(#clipPath2)"/>
      <path d="M232.0962 346.2058 L219.0963 346.2532 L223.8011 349.6976 L222.976 355.4699 Z" clip-path="url(#clipPath2)" stroke="none"/>
      <path fill="none" stroke-dasharray="6,2" d="M292.125 368.6794 L292.125 505.228 L291.5 509.603 L289.625 512.728 L286.5 514.603 L282.125 515.228 L-97.6695 515.228 L-102.0445 514.603 L-105.1695 512.728 L-107.0445 509.603 L-107.6695 505.228 L-107.6695 356.1875 L-107.0445 351.8125 L-105.1695 348.6875 L-102.0445 346.8125 L-97.6695 346.1875 L-74.0244 346.1875" clip-path="url(#clipPath2)"/>
      <path stroke-dasharray="6,2" d="M-66.0244 346.1875 L-78.0244 341.1875 L-75.0244 346.1875 L-78.0244 351.1875 Z" clip-path="url(#clipPath2)" stroke="none"/>
      <path fill="none" d="M54.0006 346.1875 L224.0997 346.1875" clip-path="url(#clipPath2)"/>
      <path d="M232.0997 346.1875 L220.0997 341.1875 L223.0997 346.1875 L220.0997 351.1875 Z" clip-path="url(#clipPath2)" stroke="none"/>
      <path fill="none" d="M292.125 315.6946 L292.125 154.402" clip-path="url(#clipPath2)"/>
      <path d="M292.125 323.6946 L297.125 311.6946 L292.125 314.6946 L287.125 311.6946 Z" clip-path="url(#clipPath2)" stroke="none"/>
      <path d="M292.125 146.402 L287.125 158.402 L292.125 155.402 L297.125 158.402 Z" clip-path="url(#clipPath2)" stroke="none"/>
      <path fill="none" d="M61.9997 -58.1875 L224.0995 -58.1875" clip-path="url(#clipPath2)"/>
      <path d="M53.9997 -58.1875 L65.9997 -53.1875 L62.9997 -58.1875 L65.9997 -63.1875 Z" clip-path="url(#clipPath2)" stroke="none"/>
      <path d="M232.0995 -58.1875 L220.0995 -63.1875 L223.0995 -58.1875 L220.0995 -53.1875 Z" clip-path="url(#clipPath2)" stroke="none"/>
      <path fill="none" d="M352.1429 346.1978 L611.0581 428.1396" clip-path="url(#clipPath2)"/>
      <path d="M618.6852 430.5534 L608.7532 422.1656 L610.1047 427.8378 L605.7358 431.6996 Z" clip-path="url(#clipPath2)" stroke="none"/>
      <path fill="none" stroke-dasharray="6,2" d="M738.7 319.9375 L783.8071 319.9375 L788.1821 319.3125 L791.3071 317.4375 L793.1821 314.3125 L793.8071 309.9375 L793.8071 133.9173 L793.1821 129.5423 L791.3071 126.4173 L788.1821 124.5423 L783.8071 123.9173 L746.7 123.9173" clip-path="url(#clipPath2)"/>
      <path stroke-dasharray="6,2" d="M738.7 123.9173 L750.7 128.9173 L747.7 123.9173 L750.7 118.9173 Z" clip-path="url(#clipPath2)" stroke="none"/>
      <path fill="none" stroke-dasharray="6,2" d="M738.7 264.6244 L783.8071 264.6244 L788.1821 263.9994 L791.3071 262.1244 L793.1821 258.9994 L793.8071 254.6244 L793.8071 133.9173 L793.1821 129.5423 L791.3071 126.4173 L788.1821 124.5423 L783.8071 123.9173 L746.7 123.9173" clip-path="url(#clipPath2)"/>
      <path stroke-dasharray="6,2" d="M738.7 123.9173 L750.7 128.9173 L747.7 123.9173 L750.7 118.9173 Z" clip-path="url(#clipPath2)" stroke="none"/>
      <path fill="none" stroke-dasharray="6,2" d="M738.7 209.3113 L783.8071 209.3113 L788.1821 208.6863 L791.3071 206.8113 L793.1821 203.6863 L793.8071 199.3113 L793.8071 133.9173 L793.1821 129.5423 L791.3071 126.4173 L788.1821 124.5423 L783.8071 123.9173 L746.7 123.9173" clip-path="url(#clipPath2)"/>
      <path stroke-dasharray="6,2" d="M738.7 123.9173 L750.7 128.9173 L747.7 123.9173 L750.7 118.9173 Z" clip-path="url(#clipPath2)" stroke="none"/>
      <path fill="none" stroke-dasharray="6,2" d="M678.7031 101.4148 L357.6732 -33.2185" clip-path="url(#clipPath2)"/>
      <path stroke-dasharray="6,2" d="M350.2958 -36.3125 L359.4283 -27.0606 L358.5955 -32.8318 L363.2957 -36.2825 Z" clip-path="url(#clipPath2)" stroke="none"/>
      <path fill="none" stroke-dasharray="6,2" d="M360.1031 -58.1875 L610.7015 -58.1875" clip-path="url(#clipPath2)"/>
      <path stroke-dasharray="6,2" d="M352.1031 -58.1875 L364.1031 -53.1875 L361.1031 -58.1875 L364.1031 -63.1875 Z" clip-path="url(#clipPath2)" stroke="none"/>
      <path stroke-dasharray="6,2" d="M618.7015 -58.1875 L606.7015 -63.1875 L609.7015 -58.1875 L606.7015 -53.1875 Z" clip-path="url(#clipPath2)" stroke="none"/>
      <path fill="none" stroke-dasharray="6,2" d="M738.7226 430.5637 L823.8071 430.5637 L828.1821 429.9387 L831.3071 428.0637 L833.1821 424.9387 L833.8071 420.5637 L833.8071 -48.1875 L833.1821 -52.5625 L831.3071 -55.6875 L828.1821 -57.5625 L823.8071 -58.1875 L746.7226 -58.1875" clip-path="url(#clipPath2)"/>
      <path stroke-dasharray="6,2" d="M738.7226 -58.1875 L750.7226 -53.1875 L747.7226 -58.1875 L750.7226 -63.1875 Z" clip-path="url(#clipPath2)" stroke="none"/>
      <path fill="none" stroke-dasharray="6,2" d="M-6.0138 101.4148 L225.316 -34.7697" clip-path="url(#clipPath2)"/>
      <path stroke-dasharray="6,2" d="M232.2101 -38.8282 L219.3324 -37.0492 L224.4543 -34.2623 L224.4056 -28.4316 Z" clip-path="url(#clipPath2)" stroke="none"/>
      <path fill="none" d="M352.1461 346.1747 L417.8611 322.6469" clip-path="url(#clipPath2)"/>
      <path d="M425.3929 319.9503 L412.4098 319.2878 L416.9196 322.984 L415.7806 328.7026 Z" clip-path="url(#clipPath2)" stroke="none"/>
      <path fill="none" d="M545.4173 319.9105 L614.2803 216.0067" clip-path="url(#clipPath2)"/>
      <path d="M618.6999 209.3383 L607.9028 216.5787 L613.7279 216.8403 L616.2383 222.1031 Z" clip-path="url(#clipPath2)" stroke="none"/>
      <path fill="none" d="M545.4352 319.9105 L612.2956 269.4695" clip-path="url(#clipPath2)"/>
      <path d="M618.682 264.6514 L606.0911 267.887 L611.4973 270.0717 L612.1136 275.87 Z" clip-path="url(#clipPath2)" stroke="none"/>
      <path fill="none" d="M545.4352 319.9375 L610.682 319.9375" clip-path="url(#clipPath2)"/>
      <path d="M618.682 319.9375 L606.682 314.9375 L609.682 319.9375 L606.682 324.9375 Z" clip-path="url(#clipPath2)" stroke="none"/>
      <path fill="none" d="M292.125 93.3895 L292.125 71.6117" clip-path="url(#clipPath2)"/>
      <path d="M292.125 101.3895 L297.125 89.3895 L292.125 92.3895 L287.125 89.3895 Z" clip-path="url(#clipPath2)" stroke="none"/>
      <path d="M292.125 63.6117 L287.125 75.6117 L292.125 72.6117 L297.125 75.6117 Z" clip-path="url(#clipPath2)" stroke="none"/>
      <path fill="none" d="M292.125 10.5461 L292.125 -27.6695" clip-path="url(#clipPath2)"/>
      <path d="M292.125 18.5461 L297.125 6.5461 L292.125 9.5461 L287.125 6.5461 Z" clip-path="url(#clipPath2)" stroke="none"/>
      <path d="M292.125 -35.6695 L287.125 -23.6695 L292.125 -26.6695 L297.125 -23.6695 Z" clip-path="url(#clipPath2)" stroke="none"/>
      <path fill="none" d="M545.4352 319.9645 L612.2956 370.4055" clip-path="url(#clipPath2)"/>
      <path d="M618.682 375.2236 L612.1136 364.005 L611.4973 369.8033 L606.0911 371.988 Z" clip-path="url(#clipPath2)" stroke="none"/>
      <path fill="none" stroke-dasharray="6,2" d="M738.7017 375.2506 L803.8071 375.2506 L808.1821 374.6256 L811.3071 372.7506 L813.1821 369.6256 L813.8071 365.2506 L813.8071 69.929 L813.2018 65.3984 L811.3859 61.8066 L808.3593 59.1536 L804.122 57.4394 L439.7025 -36.2384 L420.3232 -41.1823 L359.8896 -56.482" clip-path="url(#clipPath2)"/>
      <path stroke-dasharray="6,2" d="M352.1342 -58.4453 L362.5401 -50.6532 L360.859 -56.2365 L364.9944 -60.3474 Z" clip-path="url(#clipPath2)" stroke="none"/>
      <path fill="none" d="M352.1429 346.2046 L611.599 482.1469" clip-path="url(#clipPath2)"/>
      <path d="M618.6852 485.8597 L610.3764 475.8616 L610.7133 481.6828 L605.7354 484.7194 Z" clip-path="url(#clipPath2)" stroke="none"/>
      <path fill="none" stroke-dasharray="6,2" d="M678.7031 508.3836 L678.7031 525.228 L678.0781 529.603 L676.2031 532.728 L673.0781 534.603 L668.7031 535.228 L-117.6695 535.228 L-122.0445 534.603 L-125.1695 532.728 L-127.0445 529.603 L-127.6695 525.228 L-127.6695 281.1875 L-127.0445 276.8125 L-125.1695 273.6875 L-122.0445 271.8125 L-117.6695 271.1875 L-74.0397 271.1875" clip-path="url(#clipPath2)"/>
      <path stroke-dasharray="6,2" d="M-66.0397 271.1875 L-78.0397 266.1875 L-75.0397 271.1875 L-78.0397 276.1875 Z" clip-path="url(#clipPath2)" stroke="none"/>
    </g>
  </g>
</svg>
